<svg width="47" height="44" viewBox="0 0 47 44" fill="none" xmlns="http://www.w3.org/2000/svg">
                <path
                    d="M41.6922 39.4724H5.30558C5.04725 39.4724 4.83789 39.2764 4.83789 39.0345V33.4798C4.83789 33.238 5.04725 33.042 5.30558 33.042H41.6923C41.9506 33.042 42.16 33.238 42.16 33.4798V39.0345C42.16 39.2764 41.9506 39.4724 41.6922 39.4724Z"
                    fill="#6CE79A" />
                <path
                    d="M4.83789 33.4798V34.3436H42.16V33.4798C42.16 33.238 41.9506 33.042 41.6923 33.042H5.30558C5.04725 33.042 4.83789 33.238 4.83789 33.4798Z"
                    fill="#00D8A2" />
                <path
                    d="M12.4467 15.007C12.0466 15.0693 11.8167 14.5934 12.1317 14.3542C12.707 13.9172 13.3084 13.5229 13.9443 13.1854C16.1774 12.0002 19.0435 12.1387 21.1234 13.5118L25.667 16.5112L25.361 20.0353L20.6576 16.3516C18.8986 14.9741 16.4842 14.3792 14.1349 14.7445L12.4467 15.007Z"
                    fill="#00C4A4" />
                <path
                    d="M22.875 18.088L25.3612 20.0351L25.6671 16.5109L23.4057 15.0181C23.1359 16.0225 22.9582 17.05 22.875 18.088Z"
                    fill="#00B594" />
                <path
                    d="M23.5039 33.042V30.5785C23.5039 29.3747 23.5514 28.1715 23.6461 26.9711L24.34 18.1821C24.5489 15.5357 25.3638 12.9545 26.788 10.66C26.9215 10.445 27.0591 10.2341 27.2011 10.0278C28.667 7.89843 31.7614 7.3945 33.8999 8.9467L33.9574 8.98846C34.2884 9.22875 34.0473 9.72297 33.6365 9.64599C31.84 9.30925 30.01 10.1037 29.1457 11.616C28.6141 12.5462 28.2121 13.6715 27.881 14.9034C27.6289 15.8409 27.467 16.7978 27.3842 17.7615L27.0569 21.5757C26.8636 23.8272 26.8371 26.0884 26.9776 28.3432L27.489 33.042H23.5039V33.042Z"
                    fill="#00C4A4" />
                <path
                    d="M12.6424 17.6726H12.9855C13.8768 17.6726 14.5324 18.4712 14.283 19.2724C13.5543 21.6136 14.0574 24.1875 15.8207 27.8134C11.5342 25.9407 10.4885 22.1758 11.329 18.6521C11.4658 18.0782 12.0143 17.6726 12.6424 17.6726Z"
                    fill="#FF7383" />
                <path
                    d="M13.7526 19.7482C14.0974 19.8755 14.4802 19.6945 14.5836 19.3614C14.5842 19.3593 14.5848 19.3571 14.5855 19.355C14.731 18.8876 14.6343 18.3947 14.3204 18.0029C14.0019 17.6054 13.5152 17.3774 12.9851 17.3774H12.6421C11.87 17.3774 11.1881 17.8865 11.0208 18.5878C11.005 18.654 10.99 18.72 10.9756 18.7859C10.8909 19.1757 11.2409 19.5287 11.6633 19.4857L12.5893 19.3916C12.691 19.3813 12.7939 19.3942 12.889 19.4293L13.7526 19.7482Z"
                    fill="#6CE79A" />
                <path
                    d="M32.3658 13.1746L32.0436 13.0646C31.2061 12.7786 30.2979 13.3185 30.239 14.1513C30.0666 16.5845 28.6517 18.8411 25.668 21.6818C30.3805 21.2977 32.741 18.0963 33.2412 14.5163C33.3227 13.9332 32.9558 13.3762 32.3658 13.1746Z"
                    fill="#FF7383" />
                <path
                    d="M30.5614 14.7685C30.1909 14.7775 29.8975 14.4846 29.9224 14.1385C29.9225 14.1364 29.9227 14.1342 29.9228 14.132C29.9573 13.6461 30.2285 13.2141 30.6669 12.9468C31.1116 12.6755 31.6522 12.6175 32.1502 12.7875L32.4724 12.8976C33.1978 13.1452 33.652 13.8422 33.5525 14.5548C33.5431 14.622 33.533 14.6889 33.5223 14.7554C33.4593 15.1488 33.0013 15.368 32.6202 15.1922L31.7846 14.8067C31.6929 14.7644 31.5915 14.7435 31.4892 14.746L30.5614 14.7685Z"
                    fill="#6CE79A" />
                <path
                    d="M20.3004 19.2773H19.9574C19.066 19.2773 18.4104 20.076 18.6598 20.8771C19.3885 23.2183 18.8854 25.7922 17.1221 29.4181C21.4086 27.5454 22.4543 23.7805 21.6138 20.2569C21.477 19.683 20.9285 19.2773 20.3004 19.2773Z"
                    fill="#FF7383" />
                <path
                    d="M19.1901 21.3525C18.8454 21.4798 18.4625 21.2988 18.3592 20.9656C18.3585 20.9635 18.3579 20.9614 18.3572 20.9593C18.2118 20.4918 18.3084 19.999 18.6224 19.6072C18.9409 19.2096 19.4276 18.9817 19.9577 18.9817H20.3007C21.0728 18.9817 21.7546 19.4907 21.922 20.1921C21.9378 20.2582 21.9528 20.3242 21.9671 20.3902C22.0518 20.7799 21.7019 21.1329 21.2795 21.09L20.3534 20.9958C20.2517 20.9855 20.1489 20.9984 20.0537 21.0336L19.1901 21.3525Z"
                    fill="#6CE79A" />
                <path
                    d="M19.877 13.2706L20.4205 12.6097L20.5217 11.3667L19.8759 9.34393L18.6807 7.85205L17.9954 7.96467C17.5915 9.25324 16.8609 10.5462 17.1784 12.0935C17.2754 12.5664 17.6442 12.9504 18.1363 13.0905L18.9339 13.3175C19.2476 13.4067 19.5813 13.3878 19.877 13.2706Z"
                    fill="#6CE79A" />
                <path
                    d="M17.9941 7.96463C19.092 9.28286 19.9043 10.8757 20.1609 12.2414C20.2304 12.6115 20.1209 12.985 19.8762 13.2705C19.9789 13.2297 20.0771 13.1774 20.1682 13.1133L20.825 12.6514C21.2409 12.3589 21.4487 11.8729 21.3585 11.3932C21.0479 9.74376 19.9273 7.76342 18.4723 6.33587C18.385 6.25024 18.2302 6.31274 18.236 6.43092C18.2617 6.95157 18.153 7.45775 17.9941 7.96463Z"
                    fill="#00D8A2" />
                <path
                    d="M26.8587 11.8106L27.2177 10.9288L26.8948 9.55133L25.4915 7.5568L23.6777 6.30493L22.9744 6.63584C22.985 8.155 22.6433 9.77862 23.5255 11.3582C23.7951 11.8409 24.3282 12.1445 24.9101 12.1462L25.8531 12.149C26.2243 12.1499 26.5791 12.0276 26.8587 11.8106Z"
                    fill="#6CE79A" />
                <path
                    d="M22.974 6.63594C24.622 7.72942 26.0561 9.20744 26.8092 10.6089C27.0132 10.9887 27.0245 11.4266 26.8587 11.8105C26.9558 11.7351 27.044 11.6485 27.1204 11.5513L27.6713 10.8507C28.0202 10.4069 28.0762 9.81703 27.8115 9.32492C26.9013 7.63247 24.9983 5.82866 22.9253 4.72563C22.801 4.65947 22.6551 4.77435 22.7025 4.90068C22.9115 5.45684 22.9699 6.03837 22.974 6.63594Z"
                    fill="#00D8A2" />
                <path
                    d="M31.8428 8.58543L32.0388 7.65983L33.0939 6.65318L35.4145 5.66101L37.6616 5.5022L38.0698 6.13224C37.1989 7.41413 36.5673 8.95972 34.9237 9.85937C34.4214 10.1343 33.7974 10.1264 33.3034 9.83863L32.5029 9.37204C32.1878 9.18848 31.9565 8.9084 31.8428 8.58543Z"
                    fill="#6CE79A" />
                <path
                    d="M38.0709 6.13278C36.0542 6.23985 34.0005 6.779 32.5674 7.59204C32.179 7.81237 31.9209 8.17772 31.8436 8.58548C31.8041 8.47334 31.7786 8.35608 31.7689 8.23572L31.6997 7.3682C31.6558 6.81872 31.943 6.29103 32.4465 6.00568C34.1779 5.02433 36.8137 4.44223 39.196 4.53841C39.3389 4.54417 39.3974 4.71409 39.2855 4.79747C38.7928 5.16487 38.4134 5.62858 38.0709 6.13278Z"
                    fill="#00D8A2" />
                <path
                    d="M15.9319 13.8261L15.5278 12.9617L14.2661 12.1911L11.7718 11.6895L9.54093 11.9869L9.28711 12.6844C10.4321 13.7609 11.404 15.1431 13.2158 15.6908C13.7695 15.8581 14.3771 15.7249 14.7934 15.3442L15.468 14.7273C15.7335 14.4846 15.8952 14.1645 15.9319 13.8261Z"
                    fill="#6CE79A" />
                <path
                    d="M9.28672 12.6847C11.2808 12.3832 13.4103 12.4962 14.9967 13.0016C15.4265 13.1385 15.7625 13.4434 15.9318 13.826C15.9446 13.7085 15.9426 13.5889 15.9243 13.4694L15.7926 12.6082C15.7093 12.0628 15.3075 11.6053 14.7502 11.428C12.8339 10.8182 10.1261 10.7805 7.8217 11.3541C7.68345 11.3885 7.66543 11.5662 7.79384 11.6252C8.3593 11.8847 8.8363 12.2612 9.28672 12.6847Z"
                    fill="#00D8A2" />
                <path
                    d="M4.83763 33.5691H42.1597C42.4709 33.5691 42.723 33.3331 42.723 33.0419C42.723 32.7506 42.4709 32.5146 42.1597 32.5146H27.9976L27.5391 28.301C27.5318 28.1833 27.5259 28.0655 27.5201 27.9478L27.5133 27.8137C27.4985 27.5228 27.237 27.2988 26.9236 27.3124C26.6129 27.3264 26.3732 27.5736 26.3882 27.8645L26.3949 27.9971C26.4011 28.1226 26.4074 28.2483 26.4152 28.3739C26.4157 28.3814 26.4163 28.3891 26.4172 28.3965L26.8653 32.5146H24.0671V30.5783C24.0671 29.392 24.1144 28.1914 24.2077 27.0097L24.9015 18.2208C25.0568 16.2554 25.5475 14.3719 26.3608 12.6187C26.8416 12.5086 27.2745 12.2434 27.5732 11.8636L28.1241 11.1629C28.5155 10.6651 28.6355 10.0425 28.4686 9.46528C29.24 8.85675 30.2461 8.53589 31.2551 8.57378C31.3107 8.79889 31.4077 9.01247 31.54 9.20503C30.3149 9.52504 29.2597 10.2985 28.649 11.3671C28.1431 12.2524 27.7132 13.3669 27.3346 14.7746C27.082 15.7143 26.9098 16.705 26.8228 17.7192L26.6331 19.9295C26.223 20.3741 25.7678 20.8337 25.2653 21.3121C25.0999 21.4695 25.0569 21.7068 25.1574 21.9065C25.2581 22.1067 25.4819 22.2266 25.7157 22.2071C25.9649 22.1868 26.2092 22.159 26.4486 22.1239C26.3596 23.3463 26.3186 24.5813 26.3268 25.8035C26.3287 26.0936 26.5805 26.3275 26.8899 26.3275H26.8935C27.2045 26.3256 27.4551 26.0882 27.4532 25.7969C27.4445 24.4986 27.4925 23.1855 27.5957 21.8894C29.1216 21.4829 30.4138 20.7333 31.4524 19.6495C32.4995 18.5567 33.2378 17.1562 33.6163 15.5582C33.8667 15.3846 34.0325 15.1282 34.0798 14.8331C34.091 14.7634 34.1015 14.6933 34.1114 14.6228C34.2379 13.7168 33.6976 12.8299 32.8131 12.4579C32.9117 11.6461 32.5716 10.713 32.3043 10.13C32.4294 10.1134 32.5561 10.1028 32.684 10.0986L33.0059 10.2862C33.3531 10.4886 33.7449 10.5901 34.1357 10.5901C34.4987 10.5901 34.8609 10.5024 35.1859 10.3265C35.3282 10.2494 35.4691 10.1642 35.6168 10.0658C35.8702 9.89694 35.9294 9.56764 35.7491 9.33044C35.5686 9.09325 35.2172 9.03778 34.9636 9.20664C34.8451 9.28566 34.7335 9.35329 34.622 9.41354C34.3079 9.5836 33.9169 9.57481 33.6012 9.3909L33.1513 9.12868C34.1935 8.7875 35.0586 7.85038 35.1778 7.71709C35.3773 7.49402 35.3459 7.16205 35.1079 6.97498C34.87 6.78805 34.5149 6.81694 34.3147 7.03952C33.8941 7.50716 33.0242 8.23514 32.3296 8.19261L32.2606 7.3286C32.2322 6.9735 32.4141 6.63985 32.7352 6.45763C34.1566 5.65126 36.2247 5.13764 38.1988 5.06431C37.7361 5.58328 37.376 6.17326 37.023 6.7517C36.7986 7.11938 36.5665 7.49964 36.3125 7.85333C36.1389 8.09496 36.2075 8.42257 36.4656 8.58503C36.7236 8.74743 37.0736 8.68324 37.2472 8.44169C37.5241 8.05622 37.7665 7.65895 38.001 7.27482C38.5534 6.36975 39.0752 5.51495 39.9351 5.01081C40.1407 4.89025 40.2407 4.66008 40.1835 4.4394C40.1261 4.21865 39.9243 4.05717 39.6826 4.03847C37.0859 3.8379 34.1304 4.43314 32.1515 5.55579C31.4658 5.9447 31.0772 6.65412 31.1373 7.40719L31.146 7.51658C30.0032 7.50653 28.8734 7.85382 27.9618 8.49561C26.8306 6.75957 24.8719 5.06544 22.795 4.05942C22.5796 3.95502 22.317 3.99151 22.1432 4.15004C21.9695 4.3085 21.9236 4.55329 22.0294 4.75773C22.4719 5.61225 22.4288 6.59584 22.3833 7.63708C22.3295 8.86722 22.2685 10.2615 23.0375 11.6228C23.402 12.2682 24.1185 12.6705 24.9075 12.6728L25.116 12.6734C24.7962 13.4213 24.5306 14.19 24.3201 14.9763L21.4479 13.0803C21.3951 13.0453 21.3414 13.0112 21.2873 12.9775C21.7925 12.5587 22.031 11.9307 21.9132 11.3039C21.5567 9.40602 20.2517 7.20529 18.5886 5.69724C18.4144 5.53906 18.1516 5.50342 17.9365 5.60831C17.7214 5.71327 17.6022 5.93535 17.6407 6.15962C17.7804 6.97315 17.4793 7.78851 17.1604 8.65161C16.8093 9.60202 16.4153 10.6686 16.5722 11.8823C16.4314 11.8944 16.291 11.9101 16.1514 11.9295C15.9073 11.4643 15.4758 11.1018 14.934 10.9292C12.7435 10.2314 9.71961 10.2449 7.2306 10.9638C6.99878 11.0308 6.83883 11.2292 6.83357 11.4562C6.82831 11.6833 6.97895 11.888 7.20739 11.9643C8.16282 12.2834 8.86849 13.0131 9.61568 13.7857C10.4466 14.6449 11.3819 15.6121 12.7968 16.1114C12.6479 16.3697 12.543 16.618 12.4824 16.8552C11.5158 16.9212 10.684 17.5809 10.4713 18.4725C10.4547 18.5417 10.4389 18.611 10.4239 18.6804C10.3603 18.9727 10.4223 19.2668 10.5942 19.5103C10.3072 21.5434 10.6627 23.4406 11.6258 25.0061C11.7301 25.1755 11.9195 25.2703 12.1144 25.2703C12.2098 25.2703 12.3065 25.2476 12.3949 25.1998C12.6645 25.0545 12.7571 24.7321 12.6019 24.4798C11.8206 23.2099 11.5008 21.6749 11.6667 20.0139C11.6859 20.0128 11.705 20.0113 11.7242 20.0094L12.6504 19.9153C12.6612 19.9142 12.6723 19.9155 12.6826 19.9194L13.4887 20.217C13.2108 22.0169 13.5724 24.0292 14.6395 26.5631C14.372 26.3834 14.1213 26.1918 13.8885 25.9888C13.6608 25.7904 13.3045 25.8024 13.0924 26.0153C12.8805 26.2284 12.8932 26.5621 13.1208 26.7606C13.815 27.3657 14.6431 27.8807 15.5823 28.2909C15.6586 28.3242 15.7397 28.3404 15.8203 28.3404C15.9658 28.3404 16.1091 28.2876 16.2168 28.1877C16.3844 28.0323 16.4308 27.7956 16.3331 27.5946C14.7852 24.4117 14.2628 22.1023 14.6458 20.1244C14.8752 19.9786 15.0463 19.7597 15.1262 19.5021C15.3218 18.8737 15.1923 18.2118 14.7709 17.6861C14.4787 17.3214 14.0806 17.0634 13.6304 16.9375C13.7076 16.7367 13.8372 16.51 14.0139 16.2693C14.4469 16.2081 14.8585 16.0207 15.1864 15.7208L15.7881 15.1707C17.3293 15.2235 18.8023 15.701 19.9894 16.5288C19.5101 17.1212 19.4012 17.9777 19.3854 18.5227C18.9052 18.6405 18.4796 18.9063 18.1718 19.2905C17.7503 19.8163 17.6208 20.4783 17.8182 21.1123C17.8965 21.3649 18.0671 21.5828 18.2963 21.7285C18.6859 23.7278 18.1733 25.9836 16.6096 29.199C16.5119 29.4 16.5583 29.6367 16.7259 29.7921C16.8337 29.8921 16.977 29.9448 17.1224 29.9448C17.203 29.9448 17.2842 29.9286 17.3604 29.8953C19.3746 29.0153 20.8205 27.7019 21.6578 25.9917C22.3593 24.5586 22.5966 22.8773 22.3484 21.1152C22.5204 20.8716 22.5824 20.5774 22.5189 20.285C22.5039 20.2157 22.4881 20.1462 22.4715 20.0769C22.2628 19.2026 21.4588 18.5512 20.5161 18.4641C20.5393 18.0282 20.6332 17.5035 20.861 17.1979L23.6788 19.4047L23.0846 26.9317C22.9892 28.1391 22.9409 29.3659 22.9409 30.578V32.5143H4.83763C4.52651 32.5143 4.27441 32.7503 4.27441 33.0416C4.27441 33.3328 4.52658 33.5691 4.83763 33.5691ZM27.2423 20.8787C29.169 18.8457 30.2411 17.0838 30.6388 15.2939C31.5358 15.272 31.5128 15.2685 31.5361 15.2794L32.3716 15.6649C32.3892 15.673 32.4071 15.6807 32.4251 15.688C31.6845 18.3382 29.8399 20.1796 27.2423 20.8787ZM30.7999 14.1862C30.8159 13.9611 30.9423 13.7604 31.1469 13.6357C31.2782 13.5555 31.4271 13.5147 31.5778 13.5147C31.6689 13.5147 31.7607 13.5296 31.8495 13.56L32.1718 13.67C32.514 13.7869 32.7284 14.114 32.6817 14.4479C32.6736 14.5057 32.6651 14.5632 32.656 14.6205L32.0342 14.3335C31.6918 14.1754 31.4472 14.2193 30.7962 14.2351C30.7975 14.2189 30.7987 14.2025 30.7999 14.1862ZM31.7063 12.1674C31.237 12.1411 30.7682 12.2557 30.3599 12.5048C29.7715 12.8635 29.4074 13.4438 29.3615 14.094C29.3613 14.0958 29.3609 14.1011 29.3607 14.103C29.3419 14.3653 29.4225 14.6249 29.5846 14.8353C29.3697 16.002 28.8271 17.1629 27.8924 18.4226L27.9456 17.8036C28.0277 16.8475 28.1896 15.9151 28.4271 15.0319C28.7828 13.7089 29.1803 12.6728 29.6423 11.8645C29.9994 11.2395 30.5571 10.7473 31.2202 10.4426C31.4536 10.9359 31.7077 11.6367 31.7063 12.1674ZM24.0332 11.1302C23.4063 10.0204 23.4561 8.88382 23.5088 7.68053C23.538 7.01505 23.5676 6.33622 23.4701 5.66659C25.1013 6.71036 26.562 8.17384 27.3089 9.56399C27.4777 9.87803 27.4424 10.2512 27.2169 10.5379L26.6682 11.2358C26.6612 11.2323 26.6542 11.2288 26.647 11.2256C26.0898 10.9723 25.7339 9.89265 25.6405 9.2716C25.5976 8.98336 25.313 8.78237 25.0057 8.82202C24.6975 8.86181 24.4822 9.12797 24.5248 9.41642C24.5502 9.58866 24.7515 10.8128 25.4409 11.6201L24.911 11.6186C24.5392 11.6174 24.2028 11.4304 24.0332 11.1302ZM24.0601 16.0953C23.9293 16.7566 23.836 17.4288 23.781 18.1102L21.0188 15.9469C19.7441 14.9486 18.1408 14.3257 16.4395 14.1576C16.5051 13.9108 16.5209 13.6516 16.4815 13.3944L16.4151 12.9599C16.5933 12.9378 16.773 12.9227 16.953 12.9148C17.1976 13.2333 17.552 13.4753 17.9713 13.5946L18.7688 13.8216C18.9536 13.8742 19.1439 13.8999 19.3333 13.8999C19.6752 13.8999 20.0144 13.816 20.313 13.6543C20.4804 13.7432 20.6431 13.8396 20.7988 13.9424L24.0601 16.0953ZM18.225 8.99651C18.4159 8.47979 18.6103 7.95344 18.7178 7.40741C19.7636 8.65266 20.5582 10.179 20.8038 11.4867C20.857 11.7698 20.7353 12.0546 20.4863 12.2297L19.8769 12.6583C19.5035 12.2949 19.5276 11.2836 19.5998 10.8405C19.6475 10.553 19.4373 10.2837 19.1301 10.2388C18.8227 10.1938 18.5348 10.3907 18.4869 10.6785C18.4623 10.8256 18.3115 11.8336 18.6214 12.6774L18.2988 12.5856C18.0075 12.5027 17.7909 12.2821 17.7336 12.0098C17.5081 10.9373 17.8564 9.99459 18.225 8.99651ZM13.87 18.3191C14.0767 18.577 14.1404 18.9006 14.0463 19.2033C14.04 19.2218 14.0355 19.2424 14.0066 19.2557C13.9833 19.2664 13.9661 19.2599 13.9595 19.2575L13.0962 18.9386C12.9166 18.8723 12.72 18.8474 12.5288 18.8671L11.6027 18.9612C11.5788 18.9633 11.5592 18.9565 11.5431 18.9399C11.5219 18.918 11.5262 18.8983 11.5277 18.8911C11.5415 18.8282 11.5558 18.7654 11.5707 18.7025C11.6811 18.2401 12.1317 17.9044 12.6424 17.9044H12.9853C13.3364 17.9045 13.6589 18.0556 13.87 18.3191ZM13.4077 15.1944C12.1296 14.8143 11.3142 13.971 10.4507 13.0782C9.97328 12.5845 9.48614 12.0808 8.91527 11.6672C10.86 11.3411 12.9977 11.4266 14.5712 11.9278C14.9266 12.041 15.181 12.3304 15.2349 12.6828L15.366 13.5405C15.3584 13.5425 15.3509 13.5448 15.3433 13.5471C14.7563 13.7318 13.6945 13.1959 13.1627 12.8143C12.9164 12.6365 12.5629 12.6794 12.3729 12.9099C12.183 13.1405 12.2287 13.4716 12.475 13.6495C12.6221 13.7557 13.6823 14.4966 14.7784 14.62L14.3994 14.9665C14.1334 15.2099 13.7536 15.2972 13.4077 15.1944ZM18.3075 28.1614C19.3842 25.6154 19.7391 23.6362 19.4542 21.8217L20.2601 21.524C20.2703 21.5203 20.2815 21.5191 20.2923 21.52L21.2185 21.6142C21.2377 21.6161 21.2568 21.6176 21.276 21.6186C21.5547 24.3744 20.4992 26.6765 18.3075 28.1614ZM21.3721 20.3073C21.3872 20.3701 21.4014 20.4327 21.415 20.4953C21.4235 20.535 21.3845 20.57 21.3401 20.5658L20.4137 20.4716C20.2218 20.452 20.0258 20.4768 19.8467 20.5431L18.9833 20.862C18.9832 20.862 18.9832 20.862 18.9832 20.862C18.9506 20.8742 18.9118 20.8573 18.8999 20.8186C18.8999 20.8115 18.7188 20.3653 19.0728 19.9236C19.2839 19.6601 19.6063 19.509 19.9574 19.509H20.3005C20.811 19.509 21.2617 19.8446 21.3721 20.3073Z"
                    fill="black" />
                <path
                    d="M42.1597 38.9453H4.83763C4.52651 38.9453 4.27441 39.1813 4.27441 39.4726C4.27441 39.7638 4.52651 39.9998 4.83763 39.9998H42.1597C42.4709 39.9998 42.723 39.7638 42.723 39.4726C42.723 39.1813 42.4709 38.9453 42.1597 38.9453Z"
                    fill="black" />
                <path
                    d="M8.27126 35.6525L7.86485 35.9069L7.72645 35.7522C7.52685 35.529 7.17157 35.4996 6.93307 35.6865C6.69457 35.8734 6.66318 36.206 6.86286 36.4292L7.32582 36.9468C7.43651 37.0705 7.59624 37.1356 7.75791 37.1356C7.86598 37.1356 7.97494 37.1065 8.07068 37.0466L8.8974 36.529C9.15595 36.3671 9.22542 36.0396 9.05247 35.7976C8.87953 35.5557 8.52974 35.4906 8.27126 35.6525Z"
                    fill="black" />
                <path
                    d="M23.8914 36.6027L23.485 36.8572L23.3466 36.7025C23.147 36.4793 22.7916 36.4499 22.5532 36.6368C22.3147 36.8237 22.2833 37.1563 22.483 37.3795L22.9459 37.8971C23.0566 38.0208 23.2164 38.0858 23.378 38.0858C23.4861 38.0858 23.5951 38.0568 23.6908 37.9968L24.5175 37.4793C24.7761 37.3174 24.8455 36.9899 24.6726 36.7479C24.4997 36.5059 24.1499 36.4408 23.8914 36.6027Z"
                    fill="black" />
                <path
                    d="M32.6082 35.5602L32.2018 35.8147L32.0634 35.66C31.8638 35.4368 31.5085 35.4073 31.27 35.5943C31.0315 35.7812 31.0001 36.1138 31.1998 36.337L31.6627 36.8546C31.7734 36.9783 31.9331 37.0433 32.0948 37.0433C32.2029 37.0433 32.3119 37.0143 32.4076 36.9543L33.2343 36.4368C33.4929 36.2749 33.5623 35.9474 33.3894 35.7054C33.2166 35.4634 32.8667 35.3983 32.6082 35.5602Z"
                    fill="black" />
                <path
                    d="M16.697 34.8205L16.2906 35.0749L16.1522 34.9203C15.9526 34.6971 15.5974 34.6675 15.3589 34.8545C15.1204 35.0415 15.089 35.3741 15.2886 35.5973L15.7516 36.1148C15.8623 36.2386 16.022 36.3036 16.1837 36.3036C16.2918 36.3036 16.4007 36.2746 16.4965 36.2146L17.3232 35.697C17.5817 35.5351 17.6512 35.2077 17.4783 34.9657C17.3054 34.7236 16.9556 34.6585 16.697 34.8205Z"
                    fill="black" />
                <path
                    d="M39.3895 35.0422L38.983 35.2966L38.8446 35.1419C38.6449 34.9187 38.2897 34.8893 38.0512 35.0762C37.8127 35.2631 37.7813 35.5957 37.981 35.8189L38.444 36.3365C38.5547 36.4602 38.7144 36.5253 38.8761 36.5253C38.9841 36.5253 39.0931 36.4962 39.1888 36.4363L40.0156 35.9187C40.2742 35.7568 40.3437 35.4294 40.1707 35.1873C39.9978 34.9453 39.648 34.8803 39.3895 35.0422Z"
                    fill="black" />
            </svg>