<svg width="44" height="44" viewBox="0 0 44 44" fill="none" xmlns="http://www.w3.org/2000/svg">
                <path
                    d="M10.2048 12.4184L8.92516 13.1627L7.48419 14C4.89064 11.8234 3.98587 7.27083 6.43951 5L8.18372 5.40948L11 6.07081C11 6.07081 7.59506 10.7075 10.2048 12.4184Z"
                    fill="#189E5E" />
                <path
                    d="M10.1638 12.2319L8.81816 13C6.88268 10.7603 6.29073 7.18412 8.03849 5L11 5.68238C11 5.68238 7.41947 10.4667 10.1638 12.2319Z"
                    fill="#22B573" />
                <path
                    d="M37.6675 28.8452C38.6117 28.0614 40.1701 28.7448 39.9849 29.8641C39.7779 31.117 39.3906 32.4751 38.698 33.7518C37.1623 36.5815 34.1261 39.0095 28.2241 39C16.6727 38.9812 5.03807 29.4359 6.06312 21.1945C6.2903 19.3638 7.14266 17.5968 8.76045 16.0132C13.2026 11.665 23.6934 14.5793 25.6204 22.6453C27.1764 29.1572 33.7029 32.1357 37.6675 28.8452Z"
                    fill="#F7583E" />
                <path
                    d="M39 33.6123C37.4501 36.5172 34.3858 39.01 28.4293 39C16.7713 38.9807 5.02919 29.1819 6.0637 20.7211L9.99967 20C11.6098 24.227 21.6336 40.7852 39 33.6123Z"
                    fill="#E22814" />
                <path
                    d="M9.92463 12.0711C3.04624 15.6883 2.87412 22.0899 5.78226 27C5.78226 27 5.94939 23.8209 9.66967 23.4099C9.66967 23.4099 10.5423 19.3451 15.4572 19.336C15.4572 19.336 16.1433 14.7251 21 14.618C21 14.618 16.4899 8.61828 9.92463 12.0711Z"
                    fill="#22B573" />
                <path
                    d="M11 11C7.1801 14.4801 7.01832 19.3081 8.85013 23.4174C5.89543 24.1605 5.75301 27 5.75301 27C2.89278 21.9197 3.06178 15.2965 9.82656 11.5538C10.2264 11.333 10.6169 11.1495 11 11Z"
                    fill="#189E5E" />
                <path
                    d="M22.4285 20.0915C21.6553 18.5131 20.389 17.6401 19.6 18.1416C18.8113 18.6432 18.7985 20.3296 19.5715 21.9082C20.3447 23.4869 21.611 24.3599 22.4 23.8584C23.1887 23.3565 23.2015 21.6701 22.4285 20.0915Z"
                    fill="#FF958A" />
                <path
                    d="M39.9151 28.1979C39.1437 27.8458 38.2412 27.9653 37.6158 28.5017C36.2536 29.6695 34.5015 30.0357 32.6815 29.5325C29.7604 28.7247 27.3405 25.9009 26.5173 22.3389C25.8327 19.3808 24.0115 16.8045 21.4333 15.0797C21.4419 15.0794 21.4502 15.0788 21.4588 15.0788C21.6853 15.0742 21.8902 14.9583 21.9919 14.7778C22.0938 14.5976 22.0754 14.3818 21.9444 14.217C21.868 14.1206 20.0339 11.8456 16.9464 10.8505C16.6281 10.748 16.2769 10.895 16.1619 11.1787C16.0467 11.4624 16.2115 11.7755 16.5298 11.878C18.2004 12.4166 19.4799 13.4086 20.2212 14.0975C18.0703 14.4598 16.8108 15.6273 16.1083 16.6227C15.5473 17.4176 15.2632 18.2045 15.1295 18.6815C12.5251 18.8153 11.0049 19.9477 10.1761 20.906C9.55406 21.6253 9.22901 22.3455 9.07588 22.7696C7.07691 23.0882 6.04384 24.1017 5.52345 24.9232C5.44581 25.0462 5.3771 25.1679 5.31672 25.2874C4.30737 23.1892 3.98355 21.0107 4.40627 19.0339C4.98643 16.3206 6.96383 14.0549 10.1253 12.4825C11.5287 11.7846 12.9413 11.4523 14.321 11.4929C14.6596 11.5022 14.9428 11.2669 14.9542 10.9656C14.9656 10.664 14.7006 10.4113 14.3623 10.4011C12.892 10.3569 11.4058 10.672 9.93703 11.3355C8.77209 10.0078 10.3382 7.0157 11.0927 5.90662C11.1919 5.76105 11.2095 5.58225 11.1396 5.42322C11.0696 5.26447 10.9202 5.1439 10.7362 5.09748L6.47796 4.02082C6.25242 3.96369 6.01025 4.02631 5.85405 4.18204C4.67771 5.35483 4.15609 7.17335 4.42291 9.17122C4.6432 10.8211 5.38111 12.4193 6.43082 13.5616C4.7307 15.0401 3.63139 16.8221 3.2022 18.8293C2.63992 21.4594 3.25951 24.392 4.94638 27.0864C5.05637 27.2622 5.26311 27.3665 5.48155 27.3665C5.52777 27.3665 5.5746 27.3619 5.62112 27.352C5.88732 27.2965 6.07989 27.0908 6.09344 26.8471C6.09375 26.8422 6.12148 26.4621 6.32452 25.9737C7.90725 30.1532 11.8608 34.2767 16.9476 36.9669C17.0456 37.0189 17.1534 37.0436 17.2597 37.0436C17.4689 37.0436 17.6726 36.948 17.7872 36.7761C17.96 36.5165 17.8639 36.1814 17.5731 36.0273C12.3713 33.2764 8.42517 28.9796 7.19522 24.7551C7.79756 24.2277 8.61218 23.9067 9.63077 23.8004C9.89389 23.7729 10.1077 23.5977 10.1601 23.3661C10.1623 23.3573 10.3819 22.4573 11.1469 21.5729C12.1837 20.374 13.6928 19.7643 15.6314 19.761C15.9355 19.7604 16.1931 19.5599 16.2368 19.2918C16.2602 19.1487 16.7677 16.2651 19.6934 15.3521C22.5637 16.8798 24.607 19.4929 25.3169 22.5595C25.7818 24.5711 26.7077 26.3887 27.994 27.8161C29.2224 29.179 30.7177 30.1332 32.3186 30.5759C34.5511 31.1933 36.7916 30.7242 38.4655 29.2889C38.8362 28.9708 39.2413 29.1178 39.3566 29.1705C39.4706 29.2224 39.8378 29.4276 39.7657 29.8772C39.3633 32.3936 38.4233 34.428 36.9718 35.9241C35.0511 37.9038 32.2261 38.9074 28.5739 38.9074C28.5622 38.9074 28.5501 38.9074 28.5384 38.9074C25.6558 38.9027 22.5899 38.251 19.6715 37.023C19.3656 36.8942 19.0002 37.0109 18.8557 37.2839C18.7115 37.5566 18.8421 37.8821 19.1484 38.0109C22.2285 39.3073 25.4747 39.9951 28.536 40H28.5742C32.5977 40 35.7348 38.8692 37.8989 36.6387C39.5069 34.9817 40.5431 32.7586 40.979 30.0315C41.101 29.2683 40.6836 28.5487 39.9151 28.1979ZM5.63992 9.04213C5.43441 7.50321 5.75853 6.11481 6.53218 5.16999L9.65974 5.96073C8.92275 7.2324 7.51719 10.1375 8.86144 11.8785C8.32134 12.1776 7.81666 12.4976 7.34742 12.8363C6.45824 11.8566 5.83125 10.4769 5.63992 9.04213Z"
                    fill="black" />
            </svg>