<svg width="44" height="44" viewBox="0 0 44 44" fill="none" xmlns="http://www.w3.org/2000/svg">
                <path
                    d="M23.7214 12.4015L23.7349 12.3843C24.1469 11.8633 24.3954 11.221 24.4463 10.5456L24.4465 10.5417C24.5664 8.95656 25.75 7.689 27.2561 7.53339L27.2768 7.53127C27.9062 7.46631 28.502 7.20192 28.9854 6.77346C30.1493 5.74218 31.851 5.74218 33.0146 6.77346C33.4983 7.20192 34.0941 7.46631 34.7232 7.53127L34.7439 7.53339C36.25 7.689 37.4336 8.95656 37.5535 10.5417L37.5537 10.5456C37.6046 11.221 37.8534 11.8633 38.2651 12.3843L38.2786 12.4015C39.2405 13.618 39.2405 15.3823 38.2786 16.5988L38.2651 16.6157C37.8534 17.137 37.6046 17.779 37.5537 18.4547L37.5535 18.4583C37.4336 20.0437 36.25 21.311 34.7439 21.4669L34.7232 21.469C34.0941 21.534 33.4983 21.7981 33.0146 22.2265C31.851 23.2578 30.1493 23.2578 28.9854 22.2265C28.502 21.7981 27.9062 21.534 27.2768 21.469L27.2561 21.4669C25.75 21.311 24.5664 20.0437 24.4465 18.4583L24.4463 18.4547C24.3954 17.779 24.1469 17.137 23.7349 16.6157L23.7214 16.5988C22.7595 15.382 22.7595 13.618 23.7214 12.4015Z"
                    fill="#00C680" />
                <path
                    d="M30.9 22.2269C31.3781 21.7984 31.967 21.5343 32.589 21.4693L32.6095 21.4672C34.0984 21.3113 35.2684 20.044 35.3869 18.4584L35.3872 18.4548C35.4375 17.7795 35.6834 17.137 36.0904 16.6158L36.1038 16.5989C37.0546 15.3823 37.0546 13.6179 36.1038 12.4013L36.0904 12.3841C35.6834 11.8628 35.4375 11.2207 35.3872 10.5453L35.3869 10.5414C35.2684 8.9559 34.0984 7.68857 32.6095 7.53295L32.589 7.53084C31.967 7.46557 31.3781 7.20146 30.9 6.77298C30.6254 6.52701 30.3206 6.34026 30 6.21153C31.023 5.80118 32.207 5.98762 33.083 6.77298C33.5611 7.20146 34.1501 7.46557 34.7721 7.53084L34.7925 7.53295C36.2815 7.68857 37.4515 8.9559 37.57 10.5414L37.5703 10.5453C37.6206 11.2207 37.8665 11.8628 38.2735 12.3841L38.2869 12.4013C39.2377 13.6179 39.2377 15.3823 38.2869 16.5989L38.2735 16.6158C37.8665 17.137 37.6206 17.7795 37.5703 18.4548L37.57 18.4584C37.4515 20.044 36.2815 21.3113 34.7925 21.4672L34.7721 21.4693C34.1501 21.5343 33.5611 21.7984 33.083 22.2269C32.207 23.0122 31.023 23.199 30 22.7883C30.3206 22.6596 30.6254 22.4729 30.9 22.2269Z"
                    fill="#00A45B" />
                <path
                    d="M20.2787 12.4015L20.2652 12.3843C19.8531 11.8633 19.6044 11.221 19.5535 10.5456L19.5532 10.5417C19.4336 8.95656 18.2501 7.689 16.744 7.53339L16.723 7.53127C16.0939 7.46631 15.4978 7.20192 15.0145 6.77346C13.8505 5.74218 12.1492 5.74218 10.9853 6.77346C10.5019 7.20192 9.90614 7.46631 9.27673 7.53127L9.25602 7.53339C7.74991 7.689 6.56642 8.95656 6.44652 10.5417L6.44623 10.5456C6.39534 11.221 6.14691 11.8633 5.73487 12.3843L5.72135 12.4015C4.75955 13.618 4.75955 15.3823 5.72135 16.5988L5.73487 16.6157C6.14691 17.137 6.39534 17.779 6.44623 18.4547L6.44652 18.4583C6.56642 20.0437 7.74991 21.311 9.25602 21.4669L9.27673 21.469C9.90614 21.534 10.5019 21.7981 10.9853 22.2265C12.1492 23.2578 13.8505 23.2578 15.0145 22.2265C15.4978 21.7981 16.0939 21.534 16.723 21.469L16.7437 21.4669C18.2498 21.311 19.4333 20.0437 19.5532 18.4583L19.5535 18.4547C19.6044 17.779 19.8528 17.137 20.2649 16.6157L20.2784 16.5988C21.2405 15.382 21.2405 13.618 20.2787 12.4015Z"
                    fill="#00C680" />
                <path
                    d="M11.3986 9.70822L11.4132 9.69127C11.6133 9.45773 11.732 9.1742 11.7566 8.87172L11.7578 8.85966C11.8457 7.80197 12.2193 6.82472 12.8043 6C13.5282 6.00919 14.2494 6.25365 14.8374 6.73452C15.335 7.14185 15.9485 7.39292 16.5965 7.45496L16.6178 7.45697C18.1686 7.60491 19.3872 8.80967 19.5106 10.3169L19.5109 10.3207C19.5633 10.9627 19.8194 11.5731 20.2434 12.0686L20.2573 12.085C21.2476 13.2415 21.2476 14.9188 20.2573 16.0753L20.2434 16.0914C19.8191 16.5869 19.5633 17.1976 19.5109 17.8396L19.5106 17.8431C19.3872 19.3503 18.1686 20.5551 16.6178 20.7033L16.5965 20.7053C15.9487 20.7671 15.335 21.0184 14.8374 21.4255C14.5179 21.6869 14.1591 21.8779 13.7822 22C12.6424 21.0219 11.8877 19.6341 11.7578 18.07L11.7566 18.0585C11.732 17.756 11.6133 17.4725 11.4152 17.2413L11.3969 17.22C9.53408 15.0443 9.53408 11.8859 11.3986 9.70822Z"
                    fill="#00A45B" />
                <path
                    d="M13.8114 11.1546L13.8268 11.1353C14.2902 10.5529 14.5699 9.83519 14.6271 9.0804L14.6276 9.07609C14.7622 7.30419 16.0937 5.8877 17.7881 5.71387L17.8112 5.71128C18.5194 5.63859 19.1895 5.34322 19.7336 4.86455C21.0427 3.71182 22.9571 3.71182 24.2662 4.86455C24.8103 5.34322 25.4804 5.63859 26.1886 5.71128L26.2117 5.71387C27.9061 5.8877 29.2376 7.30419 29.3724 9.07609L29.3727 9.0804C29.4302 9.83519 29.7096 10.5529 30.1733 11.1353L30.1884 11.1546C31.2705 12.5142 31.2705 14.486 30.1884 15.8456L30.1733 15.8646C29.7098 16.447 29.4302 17.165 29.3727 17.9198L29.3724 17.9241C29.2376 19.6957 27.9061 21.1122 26.2117 21.2863L26.1886 21.2889C25.4804 21.3616 24.8103 21.6567 24.2662 22.1357C22.9571 23.2881 21.0427 23.2881 19.7336 22.1357C19.1895 21.6567 18.5194 21.3616 17.8112 21.2889L17.7881 21.2863C16.0937 21.1122 14.7622 19.696 14.6274 17.9241L14.6271 17.9198C14.5696 17.165 14.2902 16.4473 13.8265 15.8646L13.8114 15.8456C12.7295 14.4858 12.7295 12.5142 13.8114 11.1546Z"
                    fill="#60D9A7" />
                <path
                    d="M5.85076 23.315L22 20L38.1492 23.315C39.1715 23.315 40 24.1776 40 25.2416V29.8449C40 30.9089 39.1715 31.7715 38.1492 31.7715L22 36L5.85076 31.7718C4.82847 31.7718 4 30.9089 4 29.8449V25.2416C4 24.1776 4.82847 23.315 5.85076 23.315Z"
                    fill="#D87C41" />
                <path
                    d="M35.9944 31.7718C37.0121 31.7718 37.8368 30.9089 37.8368 29.8449V25.2416C37.8368 24.1776 37.0121 23.315 35.9944 23.315L21 20.223L22.0816 20L38.1576 23.315C39.1753 23.315 40 24.1776 40 25.2416V29.8449C40 30.9089 39.1753 31.7715 38.1576 31.7715L22.0816 36L21 35.7154L35.9944 31.7718Z"
                    fill="#C66D33" />
                <path
                    d="M5.85076 15H38.1492C39.1715 15 40 15.816 40 16.8226V21.1772C40 22.1838 39.1715 23 38.1492 23H5.85076C4.82847 23 4 22.1838 4 21.1772V16.8226C4 15.816 4.82847 15 5.85076 15Z"
                    fill="#E3996D" />
                <path
                    d="M37.8398 21.1772V16.8226C37.8398 15.816 37.0162 15 36 15H38.1602C39.1764 15 40 15.816 40 16.8226V21.1772C40 22.1838 39.1764 23 38.1602 23H36C37.0162 23 37.8398 22.1838 37.8398 21.1772Z"
                    fill="#D87C41" />
                <path
                    d="M5.85076 32H38.1492C39.1715 32 40 32.816 40 33.8226V38.1774C40 39.184 39.1715 40 38.1492 40H5.85076C4.82847 40 4 39.184 4 38.1774V33.8226C4 32.816 4.82847 32 5.85076 32Z"
                    fill="#E3996D" />
                <path
                    d="M37.8398 38.1774V33.8226C37.8398 32.816 37.0162 32 36 32H38.1602C39.1764 32 40 32.816 40 33.8226V38.1774C40 39.184 39.1764 40 38.1602 40H36C37.0162 40 37.8398 39.184 37.8398 38.1774Z"
                    fill="#D87C41" />
                <path
                    d="M34 35.5C34 36.3286 34.4479 37 35 37C35.5524 37 36 36.3286 36 35.5C36 34.6714 35.5524 34 35 34C34.4479 34 34 34.6714 34 35.5Z"
                    fill="#C66D33" />
                <path
                    d="M8 35.5C8 36.3286 8.44763 37 9 37C9.55237 37 10 36.3286 10 35.5C10 34.6714 9.55237 34 9 34C8.44763 34 8 34.6714 8 35.5Z"
                    fill="#C66D33" />
                <path
                    d="M28 28C27.4474 28 27 27.7729 27 27.4931V26.5069C27 26.2271 27.4474 26 28 26C28.5521 26 29 26.2271 29 26.5069V27.4931C29 27.7729 28.5521 28 28 28Z"
                    fill="black" />
                <path
                    d="M16 28C15.4479 28 15 27.7729 15 27.4931V26.5069C15 26.2271 15.4479 26 16 26C16.5526 26 17 26.2271 17 26.5069V27.4931C17 27.7729 16.5526 28 16 28Z"
                    fill="black" />
                <path
                    d="M22 29C21.2759 29 20.5963 28.6517 20.1354 28.0451C19.9363 27.7829 19.9594 27.3847 20.1873 27.1556C20.4149 26.9268 20.7608 26.9534 20.9599 27.2153C21.2129 27.5485 21.5919 27.7395 22 27.7395C22.4081 27.7395 22.7871 27.5485 23.0401 27.2153C23.2392 26.9534 23.5851 26.9268 23.8127 27.1556C24.0406 27.3847 24.0637 27.7829 23.8646 28.0451C23.4037 28.6517 22.7241 29 22 29Z"
                    fill="black" />
                <path
                    d="M35 17C36.103 17 37 17.8973 37 19C37 20.1027 36.103 21 35 21C33.897 21 33 20.103 33 19C33 17.8973 33.897 17 35 17ZM35 19.7906C35.4359 19.7906 35.7906 19.4359 35.7906 19C35.7906 18.5641 35.4359 18.2094 35 18.2094C34.5641 18.2094 34.2094 18.5641 34.2094 19C34.2094 19.4359 34.5641 19.7906 35 19.7906Z"
                    fill="black" />
                <path
                    d="M9 21C7.89701 21 7 20.103 7 19C7 17.8973 7.89701 17 9 17C10.1027 17 11 17.8973 11 19C11 20.103 10.1027 21 9 21ZM9 18.2094C8.56409 18.2094 8.20945 18.5641 8.20945 19C8.20945 19.4359 8.56409 19.7906 9 19.7906C9.43591 19.7906 9.79055 19.4359 9.79055 19C9.79055 18.5641 9.43591 18.2094 9 18.2094Z"
                    fill="black" />
                <path
                    d="M35 26C36.103 26 37 26.673 37 27.5C37 28.327 36.103 29 35 29C33.897 29 33 28.327 33 27.5C33 26.673 33.897 26 35 26ZM35 28.0929C35.4359 28.0929 35.7906 27.8269 35.7906 27.5C35.7906 27.1731 35.4359 26.9071 35 26.9071C34.5641 26.9071 34.2094 27.1731 34.2094 27.5C34.2094 27.8269 34.5641 28.0929 35 28.0929Z"
                    fill="black" />
                <path
                    d="M9 29C7.89701 29 7 28.327 7 27.5C7 26.673 7.89701 26 9 26C10.1027 26 11 26.673 11 27.5C11 28.327 10.1027 29 9 29ZM9 26.9071C8.56409 26.9071 8.20945 27.1731 8.20945 27.5C8.20945 27.8269 8.56409 28.0929 9 28.0929C9.43591 28.0929 9.79055 27.8269 9.79055 27.5C9.79055 27.1731 9.43591 26.9071 9 26.9071Z"
                    fill="black" />
                <path
                    d="M35 34C36.103 34 37 34.897 37 36C37 37.103 36.103 38 35 38C33.897 38 33 37.103 33 36C33 34.8973 33.897 34 35 34ZM35 36.7906C35.4359 36.7906 35.7906 36.4359 35.7906 36C35.7906 35.5641 35.4359 35.2094 35 35.2094C34.5641 35.2094 34.2094 35.5641 34.2094 36C34.2094 36.4359 34.5641 36.7906 35 36.7906Z"
                    fill="black" />
                <path
                    d="M9 38C7.89701 38 7 37.1027 7 36C7 34.897 7.89701 34 9 34C10.1027 34 11 34.897 11 36C11 37.103 10.1027 38 9 38ZM9 35.2094C8.56409 35.2094 8.20945 35.5641 8.20945 36C8.20945 36.4359 8.56409 36.7906 9 36.7906C9.43591 36.7906 9.79055 36.4359 9.79055 36C9.79055 35.5641 9.43591 35.2094 9 35.2094Z"
                    fill="black" />
                <path
                    d="M38.547 40H5.45299C4.10023 40 3 38.9247 3 37.603V33.1755C3 32.4298 3.35051 31.7622 3.89874 31.3225C3.35051 30.8825 3 30.2149 3 29.4692V25.0418C3 24.296 3.35051 23.6288 3.89874 23.1887C3.35051 22.7487 3 22.0815 3 21.3354V16.9083C3 15.9602 3.56621 15.1388 4.38522 14.7504C4.32376 13.8304 4.62064 12.9226 5.23178 12.2035L5.2457 12.1873C5.58954 11.783 5.79364 11.292 5.83655 10.7644C5.9789 9.01281 7.38065 7.6168 9.16914 7.44482L9.1906 7.44283C9.71535 7.3924 10.2059 7.1901 10.6089 6.85802C11.2768 6.3075 12.1254 6.00461 12.9989 6.00461C13.771 6.00461 14.5236 6.24148 15.149 6.67669C15.7943 6.13495 16.6087 5.77908 17.508 5.69266L17.533 5.69039C18.1696 5.62919 18.7645 5.38354 19.2536 4.98063C20.021 4.34822 20.9963 4 22 4C23.0037 4 23.979 4.34822 24.7464 4.98063C25.2355 5.38354 25.8304 5.62891 26.4673 5.69039L26.4917 5.69266C27.391 5.77908 28.2054 6.13495 28.8507 6.67669C29.4764 6.24177 30.2287 6.00461 31.0011 6.00461C31.8746 6.00461 32.7234 6.3075 33.3911 6.85802C33.7944 7.1901 34.2849 7.3924 34.81 7.44283L34.8306 7.44482C36.6196 7.6168 38.0211 9.01281 38.1637 10.7678C38.2064 11.292 38.4108 11.783 38.7546 12.1876L38.7682 12.2035C39.3794 12.9226 39.6762 13.8304 39.6151 14.7504C40.4338 15.1388 41 15.96 41 16.908V21.3354C41 22.0812 40.6495 22.7487 40.1013 23.1887C40.6495 23.6285 41 24.296 41 25.0418V29.4692C41 30.2149 40.6495 30.8825 40.1013 31.3225C40.6495 31.7622 41 32.4298 41 33.1755V37.603C41 38.9247 39.8998 40 38.547 40ZM11.3267 7.68962C10.7504 8.16449 10.0493 8.4535 9.2999 8.52546L9.27873 8.52773C8.02687 8.64787 7.04579 9.62481 6.94606 10.8539C6.88518 11.6031 6.59323 12.3046 6.10211 12.8826L6.0882 12.8988C5.69826 13.3575 5.49068 13.9259 5.48952 14.511H12.006C12.0048 14.5042 12.0045 14.4977 12.0034 14.4909C11.8326 13.3246 12.1933 12.1369 12.9618 11.2328C13.3492 10.7769 13.5959 10.215 13.6666 9.62623C13.7594 8.85442 13.9484 8.14664 14.4016 7.49525C13.9852 7.23401 13.4979 7.09263 12.9992 7.09263C12.3878 7.09263 11.7938 7.30456 11.3267 7.68962ZM26.3821 6.77529L26.358 6.77302C25.4961 6.69001 24.6907 6.35793 24.0285 5.81223C22.8712 4.85851 21.1282 4.85908 19.9712 5.81251C19.309 6.35793 18.5036 6.69029 17.6423 6.77302L17.6173 6.77529C15.9625 6.77529 14.9457 8.31523 14.7718 9.7577C14.6752 10.5578 14.3474 11.3053 13.818 11.9281C13.219 12.6327 12.9523 13.6034 13.1346 14.5047C13.1349 14.5067 13.1355 14.5087 13.1361 14.5107H17.7823C17.3384 13.8338 16.9128 13.0076 16.7084 12.1148C16.6415 11.8215 16.8302 11.5305 17.1303 11.4651C17.4306 11.3996 17.7278 11.5841 17.795 11.8773C18.0287 12.8993 18.6236 13.8431 19.1368 14.5107H21.4434V9.78292C21.4434 9.48258 21.6927 9.23891 22 9.23891C22.3073 9.23891 22.5566 9.48258 22.5566 9.78292V14.511H24.8629C25.3761 13.8431 25.971 12.8993 26.2047 11.8773C26.2719 11.5841 26.5694 11.3996 26.8694 11.4651C27.1695 11.5308 27.3582 11.8215 27.2913 12.1148C27.0869 13.0079 26.6613 13.8338 26.2174 14.511H30.8636C30.8642 14.509 30.8648 14.5067 30.8651 14.5047C31.0387 13.6493 30.8196 12.754 30.2864 12.0575C29.7124 11.3081 29.2885 10.5423 29.2114 9.59223C29.0922 8.12511 27.8792 6.91923 26.3821 6.77529ZM37.9118 12.8985L37.8982 12.8826C37.4068 12.3046 37.1148 11.6031 37.0536 10.8502C36.9539 9.62481 35.9731 8.64787 34.721 8.52773L34.7004 8.52575C33.9507 8.4535 33.2496 8.16449 32.6733 7.68962C32.2062 7.30456 31.6122 7.09263 31.0011 7.09263C30.5018 7.09263 30.0145 7.23401 29.5979 7.49553C29.9805 8.04549 30.2241 8.68668 30.3047 9.34686C30.4073 10.1904 30.6926 10.763 31.2052 11.4402C31.8653 12.3123 32.1514 13.4173 31.9966 14.4911C31.9958 14.4977 31.9952 14.5045 31.994 14.511H38.5105C38.5093 13.9262 38.3017 13.3575 37.9118 12.8985ZM5.45299 15.599C4.72849 15.599 4.11328 16.1937 4.11328 16.908V21.3354C4.11328 22.0574 4.71428 22.6447 5.45299 22.6447H12.7798C13.0874 22.6447 13.3364 22.8881 13.3364 23.1887C13.3364 23.4891 13.0874 23.7328 12.7798 23.7328H5.45299C4.71428 23.7328 4.11328 24.3198 4.11328 25.0418V29.4692C4.11328 30.1911 4.71428 30.7782 5.45299 30.7782H27.6731C27.9804 30.7782 28.2297 31.0219 28.2297 31.3222C28.2297 31.6228 27.9804 31.8662 27.6731 31.8662H5.45299C4.71428 31.8662 4.11328 32.4536 4.11328 33.1755V37.603C4.11328 38.3246 4.71428 38.912 5.45299 38.912H38.547C39.2857 38.912 39.8867 38.3246 39.8867 37.603V33.1755C39.8867 32.4536 39.2857 31.8662 38.547 31.8662H29.8997C29.5923 31.8662 29.343 31.6228 29.343 31.3222C29.343 31.0219 29.5923 30.7782 29.8997 30.7782H38.547C39.2857 30.7782 39.8867 30.1911 39.8867 29.4692V25.0418C39.8867 24.3198 39.2857 23.7328 38.547 23.7328H15.0063C14.699 23.7328 14.4497 23.4891 14.4497 23.1887C14.4497 22.8881 14.699 22.6447 15.0063 22.6447H38.547C39.2857 22.6447 39.8867 22.0574 39.8867 21.3354C39.8867 21.3354 39.8867 16.9128 39.8867 16.908C39.8867 16.1999 39.2709 15.599 38.547 15.599H5.45299Z"
                    fill="black" />
            </svg>