<svg width="587" height="163" viewBox="0 0 587 163" fill="none" xmlns="http://www.w3.org/2000/svg">
<path d="M587 69.1311C587 30.9475 547.156 0.00178007 497.996 0H498H497.992H497.996C448.836 0.00178007 409 30.956 409 69.1311C409 93.422 425.147 114.791 449.559 127.122L441.998 158.187C440.252 163.668 441.752 163.913 445.999 161.675L483.362 137.325C488.217 137.935 493.106 138.245 498 138.254C547.153 138.254 587 107.307 587 69.1311Z" fill="#89C97B"/>
<path d="M443.176 91.4532C442.097 91.4532 441.21 91.2035 440.516 90.7042C439.861 90.2048 439.436 89.5325 439.244 88.6874C439.09 87.8423 439.263 86.9011 439.764 85.8639L454.568 53.538C455.185 52.2319 455.917 51.2907 456.765 50.7145C457.614 50.0999 458.597 49.7926 459.715 49.7926C460.833 49.7926 461.816 50.0999 462.664 50.7145C463.512 51.2907 464.225 52.2319 464.803 53.538L479.723 85.8639C480.224 86.9011 480.398 87.8615 480.243 88.745C480.128 89.5901 479.742 90.2624 479.087 90.7618C478.431 91.2228 477.583 91.4532 476.542 91.4532C475.232 91.4532 474.21 91.1459 473.478 90.5313C472.784 89.9167 472.167 88.9563 471.627 87.6502L468.157 79.6407L471.743 82.1185H447.629L451.214 79.6407L447.802 87.6502C447.224 88.9947 446.607 89.9743 445.952 90.5889C445.335 91.1651 444.41 91.4532 443.176 91.4532ZM459.599 59.8188L452.197 77.3935L450.636 75.1462H468.736L467.174 77.3935L459.715 59.8188H459.599Z" fill="#212121"/>
<path d="M499.624 91.5685C498.005 91.5685 496.347 91.434 494.651 91.1651C492.993 90.9346 491.393 90.5889 489.851 90.1279C488.347 89.667 486.998 89.0907 485.803 88.3993C484.955 87.9383 484.357 87.3429 484.01 86.613C483.663 85.8447 483.528 85.0764 483.605 84.3081C483.721 83.5398 484.01 82.8676 484.473 82.2914C484.974 81.6767 485.591 81.2926 486.323 81.1389C487.094 80.9468 487.943 81.0813 488.868 81.5423C490.448 82.4258 492.164 83.0789 494.014 83.5014C495.903 83.924 497.773 84.1353 499.624 84.1353C502.438 84.1353 504.443 83.7127 505.638 82.8676C506.833 81.984 507.43 80.8892 507.43 79.5831C507.43 78.4691 507.006 77.5856 506.158 76.9325C505.31 76.2795 503.826 75.7225 501.705 75.2615L495.171 73.8785C491.47 73.1102 488.714 71.8042 486.902 69.9603C485.128 68.0779 484.242 65.6194 484.242 62.5846C484.242 60.6639 484.646 58.916 485.456 57.341C486.266 55.766 487.403 54.4023 488.868 53.2499C490.333 52.0974 492.068 51.2139 494.072 50.5993C496.115 49.9846 498.351 49.6773 500.78 49.6773C502.939 49.6773 505.059 49.9462 507.141 50.484C509.223 50.9834 511.054 51.7325 512.635 52.7313C513.406 53.1923 513.926 53.7877 514.196 54.5176C514.505 55.209 514.601 55.9197 514.485 56.6496C514.408 57.341 514.119 57.9557 513.618 58.4935C513.155 59.0313 512.558 59.377 511.825 59.5307C511.093 59.6843 510.206 59.5115 509.165 59.0121C507.893 58.359 506.544 57.8788 505.117 57.5715C503.691 57.2642 502.226 57.1106 500.722 57.1106C499.103 57.1106 497.715 57.3218 496.559 57.7444C495.441 58.167 494.573 58.7624 493.957 59.5307C493.378 60.299 493.089 61.1825 493.089 62.1813C493.089 63.2953 493.494 64.1981 494.304 64.8895C495.113 65.581 496.52 66.138 498.525 66.5606L505.059 67.9435C508.838 68.7502 511.652 70.0563 513.502 71.8618C515.353 73.6289 516.278 75.9721 516.278 78.8917C516.278 80.8124 515.892 82.5603 515.121 84.1353C514.35 85.6718 513.232 86.9971 511.767 88.1112C510.302 89.2252 508.548 90.0895 506.505 90.7042C504.462 91.2804 502.168 91.5685 499.624 91.5685Z" fill="#212121"/>
<path d="M526.607 91.4532C525.142 91.4532 524.024 91.0499 523.253 90.2432C522.482 89.4365 522.097 88.3032 522.097 86.8435V54.3447C522.097 52.8849 522.482 51.7709 523.253 51.0026C524.024 50.1959 525.142 49.7926 526.607 49.7926C528.034 49.7926 529.133 50.1959 529.904 51.0026C530.675 51.7709 531.06 52.8849 531.06 54.3447V68.0011H531.176L546.558 51.9822C547.213 51.2907 547.888 50.7721 548.582 50.4264C549.314 50.0423 550.143 49.8502 551.068 49.8502C552.418 49.8502 553.381 50.1959 553.96 50.8874C554.577 51.5788 554.846 52.3856 554.769 53.3075C554.692 54.2295 554.268 55.0938 553.497 55.9005L538.057 71.6313L538.115 67.7706L554.307 84.9996C555.193 85.96 555.637 86.9395 555.637 87.9383C555.675 88.9371 555.348 89.7822 554.654 90.4737C553.998 91.1267 553.015 91.4532 551.704 91.4532C550.587 91.4532 549.681 91.2228 548.987 90.7618C548.331 90.3008 547.599 89.6285 546.789 88.745L531.176 72.3804H531.06V86.8435C531.06 88.3032 530.675 89.4365 529.904 90.2432C529.171 91.0499 528.072 91.4532 526.607 91.4532Z" fill="#212121"/>
<path d="M30.7309 45.5993C10.8069 47.5989 3.73884 64.933 0.951255 79.9231C-1.83633 94.9132 1.79446 110.557 8.04324 124.343C10.9097 130.666 14.3565 136.823 15.7204 143.679C17.0844 150.535 15.8996 158.498 10.8022 163C21.1117 162.019 29.2117 153.334 35.0281 144.318C46.4672 126.512 52.8331 105.633 53.3756 84.1435C53.655 72.1917 51.7369 59.347 43.9642 50.6346C40.5842 46.8468 38.8094 45.3981 30.8073 45.5264" fill="#89C97B"/>
<path d="M5.7516 51.9592C5.67558 38.2391 11.9474 24.9714 21.2577 15.4191C32.7632 3.60446 49.766 -2.94389 65.2983 1.29431C80.8306 5.53252 93.3457 21.9876 91.4048 38.8248C90.3928 47.5953 84.2967 56.6448 75.9367 56.7881C71.9906 56.856 68.2656 54.9606 64.8422 52.8843C58.4682 49.0156 52.5171 44.3525 45.8699 41.0419C39.2227 37.7313 31.5754 35.8384 24.4887 37.9299C17.124 40.1068 10.5552 45.7225 5.80862 52.0849" fill="#89C97B"/>
<path d="M109.35 82.9132H117.705L118.37 87.3611C121.18 82.6011 124.951 81.8988 128.648 81.8988C132.419 81.8988 136.042 83.4595 138.038 85.5663L133.972 93.8377C132.123 92.199 130.423 91.3407 127.465 91.3407C122.733 91.3407 118.37 93.9938 118.37 101.095V121.383H109.35V82.9132Z" fill="#89C97B"/>
<path d="M150.43 82.7572V121.383H141.41V82.7572H150.43ZM140.596 72.0668C140.596 79.4798 151.244 79.4798 151.244 72.0668C151.244 64.6538 140.596 64.6538 140.596 72.0668Z" fill="#89C97B"/>
<path d="M194.456 121.383H185.435V101.251C185.435 95.3984 182.404 90.9505 176.636 90.9505C171.091 90.9505 167.32 95.8665 167.32 101.719V121.383H158.373V82.8352H166.433L167.024 88.0634C170.721 84.2398 174.418 82.289 179.002 82.289C187.58 82.289 194.456 89.0778 194.456 101.173V121.383Z" fill="#89C97B"/>
<path d="M219.88 90.8725C214.113 90.8725 209.528 95.1643 209.528 102.109C209.528 108.82 214.113 113.424 219.88 113.424C225.573 113.424 230.453 109.054 230.453 102.109C230.453 95.3983 225.573 90.8725 219.88 90.8725ZM231.045 66.8387H240.066V121.383H231.636L231.045 116.077C228.235 120.681 223.725 122.241 219.288 122.241C208.567 122.241 200.508 114.75 200.508 102.109C200.508 88.8437 208.419 81.9769 219.067 81.9769C222.911 81.9769 228.901 84.1618 231.045 88.1414V66.8387Z" fill="#89C97B"/>
<path d="M276.53 88.2194L276.826 82.9132H285.477V121.383H276.974L276.53 115.765C274.46 120.291 268.767 122.475 264.7 122.553C253.905 122.631 245.919 115.609 245.919 102.109C245.919 88.8437 254.274 81.8988 264.922 81.9769C269.802 81.9769 274.46 84.3958 276.53 88.2194ZM265.735 90.4823C259.746 90.4823 254.94 94.7741 254.94 102.109C254.94 109.444 259.746 113.814 265.735 113.814C279.932 113.814 279.932 90.4823 265.735 90.4823Z" fill="#89C97B"/>
<path d="M328.978 121.383H319.958V101.251C319.958 95.3984 316.926 90.9505 311.159 90.9505C305.613 90.9505 301.842 95.8665 301.842 101.719V121.383H292.895V82.8352H300.955L301.546 88.0634C305.243 84.2398 308.94 82.289 313.525 82.289C322.102 82.289 328.978 89.0778 328.978 101.173V121.383Z" fill="#89C97B"/>
<path d="M361.722 83.8496L365.345 79.0116L372 84.3178L367.933 89.7801C370.743 93.1354 371.778 96.959 371.778 101.173C371.778 105.933 370.078 112.643 364.088 115.531C370.151 118.73 371.63 123.334 371.63 128.25C371.63 138.862 363.941 145.417 353.367 145.417C342.794 145.417 334.882 138.628 334.882 128.25H343.829C343.829 133.244 348.191 136.521 353.367 136.521C358.543 136.521 362.61 133.556 362.61 128.25C362.61 122.944 357.877 120.525 353.367 120.525C341.98 120.525 334.882 113.19 334.882 101.173C334.882 89.1558 343.163 81.6647 353.367 81.6647C356.251 81.6647 359.208 82.0549 361.722 83.8496ZM353.367 90.3263C348.117 90.3263 343.829 94.462 343.829 101.173C343.829 107.883 348.117 111.863 353.367 111.863C358.543 111.863 362.831 107.805 362.831 101.173C362.831 94.54 358.543 90.3263 353.367 90.3263Z" fill="#89C97B"/>
</svg>
