<svg width="622" height="151" viewBox="0 0 622 151" fill="none" xmlns="http://www.w3.org/2000/svg">
<path fill-rule="evenodd" clip-rule="evenodd" d="M270.1 26.4251C270.1 23.4215 271.293 20.541 273.417 18.4171C275.54 16.2933 278.421 15.1001 281.425 15.1001H349.375C352.378 15.1001 355.259 16.2933 357.383 18.4171C359.506 20.541 360.7 23.4215 360.7 26.4251V115.138C360.7 120.644 362.887 125.925 366.781 129.819C370.675 133.713 375.956 135.9 381.462 135.9H290.862C285.356 135.9 280.075 133.713 276.181 129.819C272.287 125.925 270.1 120.644 270.1 115.138V26.4251ZM298.412 79.2751C296.91 79.2751 295.47 79.8717 294.408 80.9336C293.346 81.9955 292.75 83.4358 292.75 84.9376C292.75 86.4394 293.346 87.8797 294.408 88.9416C295.47 90.0035 296.91 90.6001 298.412 90.6001H332.387C333.889 90.6001 335.329 90.0035 336.391 88.9416C337.453 87.8797 338.05 86.4394 338.05 84.9376C338.05 83.4358 337.453 81.9955 336.391 80.9336C335.329 79.8717 333.889 79.2751 332.387 79.2751H298.412ZM298.412 101.925C296.91 101.925 295.47 102.522 294.408 103.584C293.346 104.646 292.75 106.086 292.75 107.588C292.75 109.089 293.346 110.53 294.408 111.592C295.47 112.654 296.91 113.25 298.412 113.25H332.387C333.889 113.25 335.329 112.654 336.391 111.592C337.453 110.53 338.05 109.089 338.05 107.588C338.05 106.086 337.453 104.646 336.391 103.584C335.329 102.522 333.889 101.925 332.387 101.925H298.412ZM292.75 43.4126C292.75 41.9108 293.346 40.4705 294.408 39.4086C295.47 38.3467 296.91 37.7501 298.412 37.7501H332.387C333.889 37.7501 335.329 38.3467 336.391 39.4086C337.453 40.4705 338.05 41.9108 338.05 43.4126V62.2876C338.05 63.7894 337.453 65.2297 336.391 66.2916C335.329 67.3535 333.889 67.9501 332.387 67.9501H298.412C296.91 67.9501 295.47 67.3535 294.408 66.2916C293.346 65.2297 292.75 63.7894 292.75 62.2876V43.4126Z" fill="#FF6B6B"/>
<path d="M379.575 49.0752H372.025V115.138C372.025 117.641 373.02 120.041 374.79 121.811C376.559 123.581 378.96 124.575 381.463 124.575C383.966 124.575 386.366 123.581 388.136 121.811C389.906 120.041 390.9 117.641 390.9 115.138V60.4002C390.9 57.3966 389.707 54.5161 387.583 52.3922C385.46 50.2684 382.579 49.0752 379.575 49.0752Z" fill="#89C97B"/>
<path d="M428.39 134V81.85H447.36C450.86 81.85 453.94 82.5033 456.6 83.81C459.307 85.07 461.407 86.9367 462.9 89.41C464.393 91.8367 465.14 94.7533 465.14 98.16C465.14 101.52 464.37 104.413 462.83 106.84C461.337 109.267 459.26 111.133 456.6 112.44C453.94 113.747 450.86 114.4 447.36 114.4H436.65V134H428.39ZM436.65 107.05H447.57C449.437 107.05 451.07 106.677 452.47 105.93C453.87 105.183 454.967 104.157 455.76 102.85C456.553 101.497 456.95 99.91 456.95 98.09C456.95 96.27 456.553 94.7067 455.76 93.4C454.967 92.0467 453.87 91.02 452.47 90.32C451.07 89.5733 449.437 89.2 447.57 89.2H436.65V107.05ZM489.287 134.84C485.507 134.84 482.147 133.977 479.207 132.25C476.313 130.477 474.05 128.097 472.417 125.11C470.783 122.077 469.967 118.693 469.967 114.96C469.967 111.133 470.783 107.75 472.417 104.81C474.097 101.87 476.337 99.56 479.137 97.88C481.937 96.1533 485.11 95.29 488.657 95.29C491.503 95.29 494.047 95.78 496.287 96.76C498.527 97.74 500.417 99.0933 501.957 100.82C503.497 102.5 504.663 104.437 505.457 106.63C506.297 108.823 506.717 111.157 506.717 113.63C506.717 114.237 506.693 114.867 506.647 115.52C506.6 116.173 506.507 116.78 506.367 117.34H476.197V111.04H501.887L498.107 113.91C498.573 111.623 498.41 109.593 497.617 107.82C496.87 106 495.703 104.577 494.117 103.55C492.577 102.477 490.757 101.94 488.657 101.94C486.557 101.94 484.69 102.477 483.057 103.55C481.423 104.577 480.163 106.07 479.277 108.03C478.39 109.943 478.04 112.277 478.227 115.03C477.993 117.597 478.343 119.837 479.277 121.75C480.257 123.663 481.61 125.157 483.337 126.23C485.11 127.303 487.117 127.84 489.357 127.84C491.643 127.84 493.58 127.327 495.167 126.3C496.8 125.273 498.083 123.943 499.017 122.31L505.457 125.46C504.71 127.233 503.543 128.843 501.957 130.29C500.417 131.69 498.55 132.81 496.357 133.65C494.21 134.443 491.853 134.84 489.287 134.84ZM531.936 134.84C528.296 134.84 525.03 133.977 522.136 132.25C519.29 130.477 517.026 128.097 515.346 125.11C513.713 122.123 512.896 118.763 512.896 115.03C512.896 111.297 513.736 107.937 515.416 104.95C517.096 101.963 519.36 99.6067 522.206 97.88C525.053 96.1533 528.273 95.29 531.866 95.29C534.9 95.29 537.583 95.8967 539.916 97.11C542.25 98.3233 544.093 100.003 545.446 102.15L544.256 103.97V81.01H552.096V134H544.606V126.3L545.516 127.77C544.21 130.057 542.343 131.807 539.916 133.02C537.49 134.233 534.83 134.84 531.936 134.84ZM532.706 127.49C534.9 127.49 536.86 126.953 538.586 125.88C540.36 124.807 541.736 123.337 542.716 121.47C543.743 119.557 544.256 117.41 544.256 115.03C544.256 112.65 543.743 110.527 542.716 108.66C541.736 106.793 540.36 105.323 538.586 104.25C536.86 103.177 534.9 102.64 532.706 102.64C530.513 102.64 528.53 103.177 526.756 104.25C524.983 105.323 523.606 106.793 522.626 108.66C521.646 110.527 521.156 112.65 521.156 115.03C521.156 117.41 521.646 119.557 522.626 121.47C523.606 123.337 524.96 124.807 526.686 125.88C528.46 126.953 530.466 127.49 532.706 127.49ZM561.331 134V96.13H569.241V134H561.331ZM561.331 90.95V81.85H569.241V90.95H561.331ZM589.829 134.84C587.262 134.84 584.999 134.397 583.039 133.51C581.126 132.577 579.632 131.317 578.559 129.73C577.486 128.097 576.949 126.183 576.949 123.99C576.949 121.937 577.392 120.093 578.279 118.46C579.212 116.827 580.636 115.45 582.549 114.33C584.462 113.21 586.866 112.417 589.759 111.95L602.919 109.78V116.01L591.299 118.04C589.199 118.413 587.659 119.09 586.679 120.07C585.699 121.003 585.209 122.217 585.209 123.71C585.209 125.157 585.746 126.347 586.819 127.28C587.939 128.167 589.362 128.61 591.089 128.61C593.236 128.61 595.102 128.143 596.689 127.21C598.322 126.277 599.582 125.04 600.469 123.5C601.356 121.913 601.799 120.163 601.799 118.25V108.52C601.799 106.653 601.099 105.137 599.699 103.97C598.346 102.757 596.526 102.15 594.239 102.15C592.139 102.15 590.296 102.71 588.709 103.83C587.169 104.903 586.026 106.303 585.279 108.03L578.699 104.74C579.399 102.873 580.542 101.24 582.129 99.84C583.716 98.3933 585.559 97.2733 587.659 96.48C589.806 95.6867 592.069 95.29 594.449 95.29C597.436 95.29 600.072 95.85 602.359 96.97C604.692 98.09 606.489 99.6533 607.749 101.66C609.056 103.62 609.709 105.907 609.709 108.52V134H602.149V127.14L603.759 127.35C602.872 128.89 601.729 130.22 600.329 131.34C598.976 132.46 597.412 133.323 595.639 133.93C593.912 134.537 591.976 134.84 589.829 134.84Z" fill="black"/>
<path d="M19.6612 76.0941C6.91411 77.3698 2.39205 88.4297 0.608599 97.9939C-1.17486 107.558 1.14807 117.54 5.14594 126.335C6.97983 130.369 9.18508 134.298 10.0577 138.672C10.9303 143.047 10.1723 148.128 6.91106 151C13.5069 150.374 18.6892 144.833 22.4105 139.08C29.729 127.719 33.8019 114.398 34.1489 100.687C34.3277 93.0609 33.1005 84.8655 28.1276 79.3067C25.9652 76.89 24.8297 75.9657 19.7101 76.0475" fill="black"/>
<path d="M3.67979 80.1519C3.63115 71.3979 7.64377 62.9327 13.6004 56.838C20.9614 49.2998 31.8396 45.1217 41.7769 47.8258C51.7142 50.5299 59.7212 61.0289 58.4794 71.7716C57.8319 77.3675 53.9318 83.1415 48.5831 83.2329C46.0585 83.2762 43.6753 82.0669 41.4851 80.7421C37.4071 78.2737 33.5996 75.2986 29.3469 73.1863C25.0941 71.074 20.2014 69.8662 15.6675 71.2007C10.9557 72.5896 6.75309 76.1727 3.71627 80.2321" fill="black"/>
<path d="M69.9602 99.9017H75.3058L75.7315 102.74C77.5291 99.7025 79.9417 99.2545 82.307 99.2545C84.7196 99.2545 87.0376 100.25 88.3149 101.594L85.7131 106.872C84.5304 105.826 83.4424 105.279 81.5501 105.279C78.5226 105.279 75.7315 106.971 75.7315 111.502V124.447H69.9602V99.9017Z" fill="black"/>
<path d="M96.2431 99.8021V124.447H90.4717V99.8021H96.2431ZM89.9514 92.9813C89.9514 97.7111 96.7634 97.7111 96.7634 92.9813C96.7634 88.2515 89.9514 88.2515 89.9514 92.9813Z" fill="black"/>
<path d="M124.41 124.447H118.639V111.602C118.639 107.868 116.699 105.03 113.009 105.03C109.461 105.03 107.049 108.166 107.049 111.9V124.447H101.325V99.8519H106.481L106.86 103.188C109.225 100.748 111.59 99.5034 114.523 99.5034C120.011 99.5034 124.41 103.835 124.41 111.552V124.447Z" fill="black"/>
<path d="M140.676 104.98C136.986 104.98 134.053 107.718 134.053 112.149C134.053 116.431 136.986 119.369 140.676 119.369C144.318 119.369 147.441 116.58 147.441 112.149C147.441 107.868 144.318 104.98 140.676 104.98ZM147.819 89.6455H153.59V124.447H148.198L147.819 121.061C146.021 123.999 143.136 124.994 140.297 124.994C133.438 124.994 128.282 120.215 128.282 112.149C128.282 103.686 133.343 99.3043 140.155 99.3043C142.615 99.3043 146.447 100.698 147.819 103.237V89.6455Z" fill="black"/>
<path d="M176.92 103.287L177.109 99.9017H182.644V124.447H177.204L176.92 120.862C175.595 123.75 171.953 125.144 169.351 125.194C162.444 125.243 157.335 120.763 157.335 112.149C157.335 103.686 162.681 99.2545 169.493 99.3043C172.615 99.3043 175.595 100.848 176.92 103.287ZM170.013 104.731C166.182 104.731 163.107 107.469 163.107 112.149C163.107 116.829 166.182 119.617 170.013 119.617C179.096 119.617 179.096 104.731 170.013 104.731Z" fill="black"/>
<path d="M210.475 124.447H204.704V111.602C204.704 107.868 202.765 105.03 199.075 105.03C195.527 105.03 193.114 108.166 193.114 111.9V124.447H187.39V99.8519H192.546L192.925 103.188C195.29 100.748 197.655 99.5034 200.588 99.5034C206.076 99.5034 210.475 103.835 210.475 111.552V124.447Z" fill="black"/>
<path d="M231.424 100.499L233.742 97.4123L238 100.798L235.398 104.283C237.196 106.424 237.858 108.863 237.858 111.552C237.858 114.589 236.77 118.871 232.938 120.713C236.817 122.754 237.763 125.691 237.763 128.828C237.763 135.599 232.844 139.781 226.079 139.781C219.314 139.781 214.252 135.45 214.252 128.828H219.976C219.976 132.014 222.768 134.106 226.079 134.106C229.39 134.106 231.992 132.214 231.992 128.828C231.992 125.443 228.965 123.899 226.079 123.899C218.794 123.899 214.252 119.219 214.252 111.552C214.252 103.885 219.551 99.1051 226.079 99.1051C227.924 99.1051 229.816 99.354 231.424 100.499ZM226.079 104.631C222.72 104.631 219.976 107.27 219.976 111.552C219.976 115.834 222.72 118.373 226.079 118.373C229.39 118.373 232.134 115.784 232.134 111.552C232.134 107.32 229.39 104.631 226.079 104.631Z" fill="black"/>
</svg>
