<svg width="139" height="99" viewBox="0 0 139 99" fill="none" xmlns="http://www.w3.org/2000/svg">
<path d="M124.146 80.9853C125.079 82.4889 126.15 83.8949 127.343 85.1839C128.345 86.2149 129.216 87.0845 129.98 87.8049C130.65 88.4296 131.246 89.1343 131.758 89.9043C132.222 90.6722 132.451 91.569 132.414 92.4756C132.414 94.1733 131.288 95.5314 129.037 96.55C126.319 97.6375 123.417 98.1444 120.506 98.0406C117.653 98.1135 114.807 97.7195 112.071 96.873C111.489 96.7364 110.942 96.4732 110.465 96.1005C109.988 95.7279 109.592 95.2544 109.304 94.7111C109.015 94.1678 108.84 93.567 108.791 92.9484C108.741 92.3297 108.818 91.7071 109.017 91.1216C109.172 90.5187 109.216 89.8908 109.148 89.2707C109.052 88.3632 108.827 87.4756 108.48 86.6373C107.938 85.2923 107.21 84.0368 106.32 82.9107C106.017 82.4637 105.673 82.0477 105.294 81.6685L103.039 79.0972L100.784 76.4513L99.5192 75.0352V80.6002C99.4982 81.6411 99.741 82.6694 100.223 83.5815C100.7 84.4634 101.202 85.3454 101.762 86.2149C102.336 87.0897 102.854 88.0026 103.313 88.9478C103.804 89.9598 104.05 91.0813 104.029 92.2147C104.051 93.1965 103.699 94.1473 103.051 94.8606C102.302 95.6408 101.386 96.2241 100.378 96.5624C99.1025 97.0246 97.7824 97.3411 96.441 97.5065C93.27 97.8906 90.0669 97.8906 86.8959 97.5065C85.5547 97.3467 84.2344 97.0343 82.9586 96.5748C81.9486 96.2393 81.0288 95.6605 80.274 94.8855C79.6214 94.1741 79.2655 93.223 79.2837 92.2396C79.2504 91.1238 79.4754 90.016 79.9399 89.0099C80.4053 88.0658 80.9064 87.159 81.4313 86.2646C81.9563 85.3703 82.4694 84.5131 82.9347 83.6312C83.4132 82.7181 83.6519 81.6897 83.6267 80.6499V50.005C83.6406 48.9649 83.3982 47.9385 82.9228 47.0237C82.4574 46.1542 81.9444 45.2722 81.4194 44.3903C80.8944 43.5083 80.3814 42.6139 79.9161 41.6574C79.4298 40.6438 79.1843 39.5234 79.2002 38.3905C79.1819 37.413 79.5333 36.4672 80.1786 35.757C80.9423 34.9881 81.8586 34.403 82.8631 34.0428C84.134 33.5829 85.4509 33.2745 86.7885 33.1236C88.3715 32.9151 89.9655 32.8114 91.561 32.813H94.2575C95.2836 32.813 96.2859 32.9 97.2165 32.9496C98.338 33.0118 99.4715 33.049 100.689 33.049C104.053 33.036 107.411 33.3731 110.711 34.0552C113.863 34.6762 116.903 35.8079 119.719 37.4091C122.342 38.9032 124.581 41.0337 126.245 43.6201C127.975 46.4782 128.848 49.8083 128.751 53.185C128.861 56.9359 127.83 60.6271 125.804 63.7312C123.836 66.6937 121.286 69.1875 118.323 71.0478L122.32 77.8798C123.418 79.8052 124.086 80.8238 124.146 80.9853ZM102.944 70.5385C104.375 70.5655 105.77 70.0639 106.881 69.1224C108.074 68.0818 109.031 66.7796 109.685 65.3088C110.482 63.5579 111.048 61.7025 111.367 59.7935C111.741 57.6667 111.924 55.5085 111.916 53.3465C111.94 51.2799 111.654 49.2221 111.069 47.2473C110.533 45.5081 109.687 43.8897 108.575 42.4773C107.524 41.1248 106.19 40.0412 104.674 39.3097C103.012 38.525 101.2 38.1428 99.3761 38.1917V66.9361C99.3516 67.5608 99.4831 68.1814 99.7579 68.7373C99.9677 69.1745 100.274 69.5534 100.653 69.8428C100.982 70.1109 101.366 70.2977 101.774 70.3894C102.156 70.4928 102.549 70.5429 102.944 70.5385Z" fill="#89C97B"/>
<path d="M136.244 18.7637C118.025 4.90086 95.3074 -4.82552 72.6975 2.51585C48.6559 10.3168 32.8588 44.5393 5.29748 39.2103L4.02082 49.1478C19.7821 50.7378 32.2146 62.3523 47.1406 66.6503C60.9104 70.4475 75.4578 69.8546 88.9003 64.9485C94.7824 62.9113 91.0599 53.6446 85.1777 55.6693C70.4997 60.8889 54.4612 60.0757 40.3398 53.3961C28.6352 47.918 18.3981 40.5021 5.29748 39.2103C-0.894883 38.5892 -2.08802 47.9926 4.02082 49.1478C26.8097 53.57 42.2011 35.7073 58.368 22.3164C81.5745 3.18663 107.895 9.59635 130.302 26.6641C135.325 30.5025 141.279 22.6021 136.244 18.7637Z" fill="#89C97B"/>
</svg>
