<svg width="378" height="638" viewBox="0 0 378 638" fill="none" xmlns="http://www.w3.org/2000/svg">
<path d="M126.603 180.033C44.5218 187.833 15.4031 255.452 3.91893 313.927C-7.56522 372.401 7.39271 433.427 33.1361 487.202C44.945 511.867 59.1452 535.885 64.7643 562.63C70.3833 589.376 65.5023 620.438 44.5022 638C86.9748 634.174 120.345 600.296 144.307 565.122C191.433 495.663 217.659 414.218 219.894 330.39C221.045 283.767 213.143 233.661 181.121 199.675C167.197 184.9 159.885 179.248 126.918 179.749" fill="#69B953"/>
<path d="M23.0028 202.798C22.6885 149.248 48.6223 97.4642 87.1204 60.1814C134.695 14.0683 205.002 -11.4901 269.227 5.05175C333.453 21.5936 385.203 85.8182 377.177 151.534C372.992 185.766 347.785 221.086 313.217 221.646C296.9 221.911 281.497 214.513 267.341 206.409C240.985 191.309 216.377 173.109 188.891 160.188C161.405 147.266 129.784 139.878 100.48 148.041C70.0276 156.538 42.8658 178.456 23.2386 203.289" fill="#69B953"/>
</svg>
