<svg width="1678" height="818" viewBox="0 0 1678 818" fill="none" xmlns="http://www.w3.org/2000/svg">
<path d="M216.603 270.033C134.522 277.833 105.403 345.452 93.9189 403.926C82.4348 462.401 97.3927 523.427 123.136 577.202C134.945 601.867 149.145 625.885 154.764 652.63C160.383 679.376 155.502 710.438 134.502 728C176.975 724.174 210.345 690.296 234.307 655.122C281.433 585.663 307.659 504.218 309.894 420.39C311.045 373.767 303.143 323.661 271.121 289.675C257.197 274.899 249.885 269.248 216.918 269.749" fill="#69B953"/>
<path d="M113.003 292.798C112.688 239.248 138.622 187.464 177.12 150.181C224.695 104.068 295.002 78.5099 359.227 95.0517C423.453 111.594 475.203 175.818 467.177 241.534C462.992 275.766 437.785 311.086 403.217 311.646C386.9 311.911 371.497 304.513 357.341 296.409C330.985 281.309 306.377 263.109 278.891 250.188C251.405 237.266 219.784 229.878 190.48 238.041C160.028 246.538 132.866 268.456 113.239 293.289" fill="#69B953"/>
<path d="M519.91 336.214H553.554L556.234 353.185C567.548 335.023 582.733 332.344 597.62 332.344C612.804 332.344 627.394 338.298 635.433 346.337L619.057 377.898C611.614 371.645 604.766 368.37 592.856 368.37C573.801 368.37 556.234 378.493 556.234 405.588V483H519.91V336.214ZM685.332 335.619V483H649.008V335.619H685.332ZM645.733 294.828C645.733 323.114 688.607 323.114 688.607 294.828C688.607 266.543 645.733 266.543 645.733 294.828ZM862.613 483H826.289V406.183C826.289 383.853 814.081 366.881 790.858 366.881C768.527 366.881 753.342 385.639 753.342 407.97V483H717.316V335.916H749.77L752.151 355.865C767.038 341.276 781.925 333.832 800.385 333.832C834.923 333.832 862.613 359.736 862.613 405.885V483ZM964.989 366.584C941.765 366.584 923.305 382.959 923.305 409.458C923.305 435.064 941.765 452.631 964.989 452.631C987.915 452.631 1007.57 435.957 1007.57 409.458C1007.57 383.853 987.915 366.584 964.989 366.584ZM1009.95 274.88H1046.27V483H1012.33L1009.95 462.754C998.634 480.32 980.472 486.275 962.607 486.275C919.435 486.275 886.981 457.692 886.981 409.458C886.981 358.842 918.839 332.641 961.714 332.641C977.196 332.641 1001.31 340.978 1009.95 356.163V274.88ZM1193.11 356.461L1194.3 336.214H1229.13V483H1194.89L1193.11 461.563C1184.77 478.832 1161.84 487.168 1145.47 487.466C1102 487.764 1069.84 460.967 1069.84 409.458C1069.84 358.842 1103.49 332.344 1146.36 332.641C1166.01 332.641 1184.77 341.871 1193.11 356.461ZM1149.64 365.095C1125.52 365.095 1106.17 381.471 1106.17 409.458C1106.17 437.446 1125.52 454.119 1149.64 454.119C1206.8 454.119 1206.8 365.095 1149.64 365.095ZM1404.3 483H1367.98V406.183C1367.98 383.853 1355.77 366.881 1332.55 366.881C1310.22 366.881 1295.03 385.639 1295.03 407.97V483H1259V335.916H1291.46L1293.84 355.865C1308.73 341.276 1323.61 333.832 1342.07 333.832C1376.61 333.832 1404.3 359.736 1404.3 405.885V483ZM1536.15 339.787L1550.74 321.327L1577.54 341.573L1561.16 362.415C1572.48 375.218 1576.65 389.807 1576.65 405.885C1576.65 424.047 1569.8 449.653 1545.68 460.669C1570.1 472.877 1576.05 490.443 1576.05 509.201C1576.05 549.694 1545.09 574.704 1502.51 574.704C1459.93 574.704 1428.07 548.801 1428.07 509.201H1464.1C1464.1 528.256 1481.67 540.762 1502.51 540.762C1523.35 540.762 1539.73 529.447 1539.73 509.201C1539.73 488.955 1520.67 479.725 1502.51 479.725C1456.66 479.725 1428.07 451.737 1428.07 405.885C1428.07 360.033 1461.42 331.45 1502.51 331.45C1514.12 331.45 1526.03 332.939 1536.15 339.787ZM1502.51 364.499C1481.37 364.499 1464.1 380.28 1464.1 405.885C1464.1 431.491 1481.37 446.676 1502.51 446.676C1523.35 446.676 1540.62 431.193 1540.62 405.885C1540.62 380.577 1523.35 364.499 1502.51 364.499Z" fill="white"/>
</svg>
