<svg width="2079" height="639" viewBox="0 0 2079 639" fill="none" xmlns="http://www.w3.org/2000/svg">
<path d="M126.603 180.315C44.5218 188.127 15.4031 255.852 3.91893 314.419C-7.56522 372.985 7.39271 434.106 33.1361 487.966C44.945 512.67 59.1452 536.725 64.7643 563.512C70.3833 590.3 65.5023 621.41 44.5022 639C86.9748 635.168 120.345 601.236 144.307 566.008C191.433 496.44 217.659 414.868 219.894 330.908C221.045 284.212 213.143 234.027 181.121 199.988C167.197 185.189 159.885 179.529 126.918 180.03" fill="white"/>
<path d="M23.0028 203.116C22.6885 149.482 48.6223 97.617 87.1204 60.2757C134.695 14.0904 205.002 -11.5081 269.227 5.05966C333.453 21.6274 385.203 85.9528 377.177 151.772C372.992 186.057 347.785 221.433 313.217 221.993C296.9 222.258 281.497 214.849 267.341 206.732C240.985 191.609 216.377 173.381 188.891 160.439C161.405 147.497 129.784 140.098 100.48 148.273C70.0276 156.783 42.8658 178.736 23.2386 203.607" fill="white"/>
<path d="M461.792 497V253.8H507.872V497H461.792ZM507.872 358.248L490.464 350.568C490.464 319.507 497.632 294.76 511.968 276.328C526.304 257.896 546.955 248.68 573.92 248.68C586.208 248.68 597.301 250.899 607.2 255.336C617.099 259.432 626.315 266.429 634.848 276.328L604.64 307.56C599.52 302.099 593.888 298.173 587.744 295.784C581.6 293.395 574.432 292.2 566.24 292.2C549.173 292.2 535.179 297.661 524.256 308.584C513.333 319.507 507.872 336.061 507.872 358.248ZM647.324 497V253.8H693.404V497H647.324ZM670.364 205.16C661.831 205.16 654.833 202.429 649.372 196.968C643.911 191.165 641.18 183.997 641.18 175.464C641.18 167.272 643.911 160.445 649.372 154.984C654.833 149.181 661.831 146.28 670.364 146.28C678.897 146.28 685.895 149.181 691.356 154.984C696.817 160.445 699.548 167.272 699.548 175.464C699.548 183.997 696.817 191.165 691.356 196.968C685.895 202.429 678.897 205.16 670.364 205.16ZM912.864 497V355.176C912.864 336.744 907.061 321.555 895.456 309.608C883.851 297.661 868.832 291.688 850.4 291.688C838.112 291.688 827.189 294.419 817.632 299.88C808.075 305.341 800.565 312.851 795.104 322.408C789.643 331.965 786.912 342.888 786.912 355.176L767.968 344.424C767.968 325.992 772.064 309.608 780.256 295.272C788.448 280.936 799.883 269.672 814.56 261.48C829.237 252.947 845.792 248.68 864.224 248.68C882.656 248.68 898.869 253.288 912.864 262.504C927.2 271.72 938.464 283.837 946.656 298.856C954.848 313.533 958.944 329.235 958.944 345.96V497H912.864ZM740.832 497V253.8H786.912V497H740.832ZM1103.76 502.12C1081.24 502.12 1061.1 496.659 1043.35 485.736C1025.6 474.472 1011.43 459.283 1000.85 440.168C990.612 421.053 985.492 399.549 985.492 375.656C985.492 351.763 990.612 330.259 1000.85 311.144C1011.43 292.029 1025.6 276.84 1043.35 265.576C1061.1 254.312 1081.24 248.68 1103.76 248.68C1121.85 248.68 1138.24 252.605 1152.92 260.456C1167.59 267.965 1179.37 278.547 1188.24 292.2C1197.46 305.512 1202.58 321.043 1203.6 338.792V412.008C1202.58 429.416 1197.63 444.947 1188.76 458.6C1179.88 472.253 1168.11 483.005 1153.43 490.856C1138.75 498.365 1122.2 502.12 1103.76 502.12ZM1111.44 458.6C1126.8 458.6 1140.12 455.016 1151.38 447.848C1162.99 440.68 1172.03 430.952 1178.52 418.664C1185 406.035 1188.24 391.699 1188.24 375.656C1188.24 358.931 1184.83 344.424 1178 332.136C1171.52 319.848 1162.47 310.12 1150.87 302.952C1139.6 295.784 1126.29 292.2 1110.93 292.2C1095.57 292.2 1082.09 295.784 1070.48 302.952C1058.88 310.12 1049.66 320.019 1042.84 332.648C1036.35 344.936 1033.11 359.101 1033.11 375.144C1033.11 391.528 1036.35 406.035 1042.84 418.664C1049.66 430.952 1058.88 440.68 1070.48 447.848C1082.43 455.016 1096.08 458.6 1111.44 458.6ZM1231.76 497H1185.17V431.464L1193.88 372.072L1185.17 313.192V131.432H1231.76V497ZM1381.8 502.12C1359.61 502.12 1339.47 496.659 1321.38 485.736C1303.29 474.472 1288.95 459.283 1278.37 440.168C1268.13 421.053 1263.01 399.549 1263.01 375.656C1263.01 351.763 1268.13 330.259 1278.37 311.144C1288.95 292.029 1303.12 276.84 1320.87 265.576C1338.96 254.312 1359.27 248.68 1381.8 248.68C1400.23 248.68 1416.61 252.605 1430.95 260.456C1445.63 267.965 1457.4 278.547 1466.28 292.2C1475.15 305.512 1480.1 321.043 1481.12 338.792V412.008C1480.1 429.416 1475.15 444.947 1466.28 458.6C1457.74 472.253 1446.14 483.005 1431.46 490.856C1417.12 498.365 1400.57 502.12 1381.8 502.12ZM1389.48 458.6C1412.35 458.6 1430.78 450.92 1444.77 435.56C1458.77 419.859 1465.76 399.891 1465.76 375.656C1465.76 358.931 1462.52 344.424 1456.04 332.136C1449.89 319.507 1441.02 309.779 1429.41 302.952C1417.81 295.784 1404.32 292.2 1388.96 292.2C1373.6 292.2 1359.95 295.784 1348 302.952C1336.4 310.12 1327.18 320.019 1320.36 332.648C1313.87 344.936 1310.63 359.101 1310.63 375.144C1310.63 391.528 1313.87 406.035 1320.36 418.664C1327.18 430.952 1336.57 440.68 1348.52 447.848C1360.46 455.016 1374.12 458.6 1389.48 458.6ZM1462.69 497V431.464L1471.4 372.072L1462.69 313.192V253.8H1509.28V497H1462.69ZM1727.92 497V355.176C1727.92 336.744 1722.12 321.555 1710.52 309.608C1698.91 297.661 1683.89 291.688 1665.46 291.688C1653.17 291.688 1642.25 294.419 1632.69 299.88C1623.13 305.341 1615.63 312.851 1610.16 322.408C1604.7 331.965 1601.97 342.888 1601.97 355.176L1583.03 344.424C1583.03 325.992 1587.12 309.608 1595.32 295.272C1603.51 280.936 1614.94 269.672 1629.62 261.48C1644.3 252.947 1660.85 248.68 1679.28 248.68C1697.72 248.68 1713.93 253.288 1727.92 262.504C1742.26 271.72 1753.52 283.837 1761.72 298.856C1769.91 313.533 1774 329.235 1774 345.96V497H1727.92ZM1555.89 497V253.8H1601.97V497H1555.89ZM1916.78 604.008C1891.86 604.008 1869.67 599.4 1850.22 590.184C1831.1 580.968 1815.74 567.997 1804.14 551.272L1833.83 521.064C1843.73 533.693 1855.51 543.251 1869.16 549.736C1882.81 556.563 1899.03 559.976 1917.8 559.976C1942.72 559.976 1962.34 553.32 1976.68 540.008C1991.36 527.037 1998.7 509.459 1998.7 487.272V426.856L2006.89 372.072L1998.7 317.8V253.8H2044.78V487.272C2044.78 510.483 2039.31 530.792 2028.39 548.2C2017.81 565.608 2002.79 579.261 1983.34 589.16C1964.22 599.059 1942.03 604.008 1916.78 604.008ZM1916.78 492.904C1894.59 492.904 1874.62 487.613 1856.87 477.032C1839.46 466.451 1825.64 451.944 1815.4 433.512C1805.16 414.739 1800.04 393.747 1800.04 370.536C1800.04 347.325 1805.16 326.675 1815.4 308.584C1825.64 290.152 1839.46 275.645 1856.87 265.064C1874.62 254.141 1894.59 248.68 1916.78 248.68C1935.89 248.68 1952.79 252.435 1967.46 259.944C1982.14 267.453 1993.75 278.035 2002.28 291.688C2011.15 305 2015.93 320.701 2016.62 338.792V403.304C2015.59 421.053 2010.64 436.755 2001.77 450.408C1993.23 463.72 1981.63 474.131 1966.95 481.64C1952.27 489.149 1935.55 492.904 1916.78 492.904ZM1925.99 449.384C1941.01 449.384 1954.15 446.141 1965.42 439.656C1977.02 433.171 1985.9 424.125 1992.04 412.52C1998.18 400.573 2001.26 386.749 2001.26 371.048C2001.26 355.347 1998.01 341.693 1991.53 330.088C1985.38 318.141 1976.68 308.925 1965.42 302.44C1954.15 295.613 1940.84 292.2 1925.48 292.2C1910.12 292.2 1896.64 295.613 1885.03 302.44C1873.43 308.925 1864.21 318.141 1857.38 330.088C1850.9 341.693 1847.66 355.176 1847.66 370.536C1847.66 385.896 1850.9 399.549 1857.38 411.496C1864.21 423.443 1873.43 432.829 1885.03 439.656C1896.98 446.141 1910.63 449.384 1925.99 449.384Z" fill="white"/>
</svg>
