<svg width="563" height="202" viewBox="0 0 563 202" fill="none" xmlns="http://www.w3.org/2000/svg">
<path d="M98.7807 116.134C99.5234 117.4 100.376 118.583 101.325 119.668C102.123 120.535 102.816 121.267 103.423 121.874C103.956 122.399 104.431 122.992 104.838 123.64C105.207 124.287 105.389 125.041 105.36 125.804C105.36 127.233 104.464 128.376 102.673 129.233C100.51 130.148 98.2013 130.575 95.8852 130.488C93.6149 130.549 91.35 130.217 89.1732 129.505C88.7103 129.39 88.2748 129.169 87.8953 128.855C87.5158 128.541 87.2009 128.143 86.9713 127.686C86.7417 127.228 86.6027 126.723 86.5633 126.202C86.5239 125.681 86.5851 125.158 86.7428 124.665C86.8661 124.157 86.9016 123.629 86.8472 123.107C86.7712 122.343 86.592 121.596 86.3156 120.891C85.8845 119.759 85.3056 118.702 84.5972 117.755C84.3558 117.378 84.0824 117.028 83.7808 116.709L81.9865 114.545L80.1922 112.318L79.1858 111.127V115.81C79.1691 116.686 79.3623 117.551 79.746 118.319C80.1257 119.061 80.5244 119.804 80.9706 120.535C81.4272 121.272 81.8394 122.04 82.2048 122.835C82.5953 123.687 82.7909 124.631 82.7744 125.585C82.7915 126.411 82.5117 127.211 81.996 127.811C81.4004 128.468 80.6715 128.959 79.8694 129.244C78.8543 129.633 77.8038 129.899 76.7365 130.038C74.2134 130.362 71.6647 130.362 69.1416 130.038C68.0744 129.904 67.0238 129.641 66.0087 129.254C65.205 128.972 64.4732 128.485 63.8726 127.832C63.3533 127.234 63.0701 126.433 63.0846 125.606C63.0581 124.667 63.2372 123.734 63.6068 122.888C63.977 122.093 64.3757 121.33 64.7935 120.577C65.2112 119.824 65.6194 119.103 65.9897 118.361C66.3704 117.592 66.5604 116.727 66.5403 115.852V90.0614C66.5513 89.1861 66.3585 88.3223 65.9802 87.5524C65.6099 86.8206 65.2017 86.0783 64.784 85.3361C64.3663 84.5939 63.958 83.8411 63.5878 83.0362C63.2009 82.1831 63.0055 81.2402 63.0182 80.2867C63.0036 79.4641 63.2832 78.6682 63.7966 78.0704C64.4043 77.4234 65.1335 76.9309 65.9327 76.6278C66.9439 76.2407 67.9918 75.9812 69.0561 75.8541C70.3156 75.6787 71.584 75.5914 72.8536 75.5928H74.9991C75.8156 75.5928 76.6131 75.666 77.3536 75.7078C78.246 75.7601 79.1479 75.7914 80.1162 75.7914C82.7934 75.7805 85.4649 76.0641 88.0909 76.6382C90.5994 77.1608 93.018 78.1133 95.2586 79.4608C97.346 80.7182 99.1273 82.5113 100.452 84.6879C101.828 87.0933 102.522 89.8959 102.445 92.7377C102.533 95.8944 101.712 99.0009 100.1 101.613C98.5342 104.106 96.5053 106.205 94.1478 107.771L97.3282 113.521C98.2016 115.141 98.7333 115.998 98.7807 116.134ZM81.9105 107.342C83.0499 107.365 84.1598 106.943 85.0434 106.15C85.9928 105.275 86.7547 104.179 87.2744 102.941C87.9089 101.467 88.3591 99.906 88.613 98.2993C88.9102 96.5094 89.0564 94.6931 89.0497 92.8736C89.0688 91.1344 88.8414 89.4026 88.3757 87.7406C87.9497 86.2768 87.2765 84.9148 86.3915 83.7262C85.5554 82.5879 84.4934 81.6759 83.2871 81.0603C81.9647 80.4 80.5235 80.0783 79.0719 80.1195V104.31C79.0524 104.836 79.1571 105.358 79.3757 105.826C79.5427 106.194 79.7867 106.513 80.0877 106.757C80.3498 106.982 80.6549 107.14 80.9801 107.217C81.2839 107.304 81.5967 107.346 81.9105 107.342Z" fill="black"/>
<path d="M124.367 115.904C124.359 116.78 124.555 117.644 124.936 118.413C125.316 119.145 125.705 119.876 126.132 120.619C126.56 121.361 126.949 122.114 127.329 122.877C127.718 123.717 127.91 124.652 127.889 125.595C127.889 127.393 126.993 128.623 125.202 129.285C123.018 130.034 120.739 130.387 118.452 130.331C116.154 130.377 113.863 130.024 111.664 129.285C109.87 128.627 108.977 127.403 108.977 125.595C108.949 124.652 109.139 123.717 109.528 122.877C109.901 122.11 110.3 121.357 110.724 120.619C111.142 119.876 111.531 119.145 111.911 118.402C112.289 117.632 112.482 116.769 112.471 115.893V103.484C112.501 102.736 112.3 101.999 111.901 101.393C111.549 100.923 111.168 100.48 110.762 100.066C110.325 99.6438 109.925 99.1784 109.566 98.6752C109.149 97.9842 108.949 97.1617 108.996 96.3335C109.021 95.8453 109.14 95.3685 109.346 94.9356C109.553 94.5027 109.841 94.1237 110.193 93.8245C111.096 92.9408 112.13 92.2337 113.25 91.7336C115.903 90.538 118.737 89.9032 121.604 89.8623C121.991 89.8475 122.375 89.9346 122.725 90.1165C123.075 90.2983 123.381 90.5696 123.617 90.9078C124.062 91.4294 124.327 92.1063 124.367 92.8209V115.904ZM118.443 86.862C117.336 86.8737 116.236 86.683 115.186 86.2975C114.223 85.9482 113.316 85.433 112.5 84.7711C111.77 84.1744 111.162 83.4158 110.715 82.5444C110.288 81.7051 110.068 80.757 110.079 79.795C110.071 78.8213 110.286 77.8611 110.705 77.0037C111.141 76.1144 111.75 75.3431 112.49 74.7456C113.29 74.0787 114.185 73.563 115.139 73.2193C116.185 72.832 117.282 72.6343 118.386 72.6338C119.477 72.6308 120.561 72.8251 121.594 73.2088C122.534 73.5535 123.416 74.0656 124.205 74.7247C124.943 75.3273 125.555 76.0973 125.999 76.9828C126.417 77.8412 126.636 78.8001 126.636 79.774C126.646 80.7361 126.427 81.6842 125.999 82.5235C125.568 83.4006 124.973 84.1667 124.253 84.7711C123.466 85.428 122.587 85.9399 121.651 86.287C120.62 86.6804 119.534 86.8749 118.443 86.862Z" fill="black"/>
<path d="M169.728 115.83C169.716 116.704 169.912 117.565 170.298 118.329C170.668 119.071 171.067 119.813 171.484 120.545C171.902 121.277 172.31 122.04 172.69 122.814C173.079 123.647 173.272 124.574 173.25 125.511C173.25 127.33 172.355 128.567 170.564 129.222C168.361 129.935 166.071 130.266 163.776 130.205C161.489 130.272 159.208 129.94 157.016 129.222C155.231 128.574 154.329 127.34 154.329 125.542C154.31 124.599 154.502 123.666 154.89 122.824C155.26 122.072 155.659 121.308 156.076 120.577C156.494 119.845 156.893 119.103 157.272 118.36C157.652 117.591 157.842 116.726 157.823 115.851V104.352C157.916 101.825 157.568 99.3013 156.798 96.9188C156.55 96.0959 156.066 95.384 155.418 94.8901C154.771 94.3961 153.996 94.1469 153.209 94.1798C152.236 94.1485 151.285 94.4965 150.522 95.1624C149.725 95.8988 149.058 96.7921 148.557 97.7969C148.002 98.8881 147.59 100.06 147.333 101.278C147.069 102.459 146.932 103.669 146.924 104.885V115.862C146.911 116.739 147.107 117.604 147.494 118.371C147.855 119.103 148.263 119.845 148.681 120.577C149.098 121.308 149.507 122.072 149.886 122.824C150.275 123.662 150.467 124.592 150.446 125.532C150.446 127.33 149.551 128.564 147.76 129.233C143.323 130.55 138.649 130.55 134.212 129.233C132.428 128.574 131.526 127.351 131.526 125.532C131.508 124.591 131.704 123.661 132.095 122.824C132.456 122.061 132.855 121.298 133.272 120.556C133.69 119.813 134.098 119.082 134.469 118.339C134.848 117.574 135.038 116.712 135.019 115.841V103.474C135.046 102.728 134.849 101.993 134.459 101.383C134.089 100.9 133.686 100.449 133.253 100.034C132.824 99.6032 132.427 99.1347 132.067 98.6332C131.65 97.9461 131.449 97.1268 131.497 96.302C131.52 95.8134 131.639 95.3362 131.846 94.9031C132.052 94.47 132.341 94.0912 132.693 93.7929C133.624 92.8971 134.691 92.1893 135.845 91.7021C137.166 91.0936 138.54 90.6381 139.947 90.3431C141.345 90.0166 142.77 89.845 144.2 89.8308C144.587 89.821 144.971 89.9103 145.322 90.0917C145.673 90.2731 145.981 90.5416 146.222 90.8762C146.668 91.4214 146.929 92.1193 146.962 92.8521V94.1588C147.589 92.8097 148.559 91.6909 149.753 90.939C150.918 90.24 152.225 89.8802 153.551 89.8935C155.831 89.8527 158.107 90.0912 160.339 90.6044C162.16 91.0398 163.882 91.8792 165.399 93.0716C166.81 94.2177 167.907 95.7694 168.57 97.5565C169.357 99.7503 169.729 102.098 169.662 104.456L169.728 115.83Z" fill="black"/>
<path d="M208.594 115.768C208.592 116.64 208.787 117.499 209.164 118.267C209.534 118.998 209.942 119.741 210.36 120.483C210.777 121.225 211.186 121.967 211.556 122.741C211.944 123.578 212.137 124.509 212.116 125.449C212.116 127.254 211.22 128.487 209.429 129.149C207.231 129.888 204.94 130.241 202.641 130.195C201.657 130.234 200.68 130.008 199.793 129.536C199.119 129.169 198.511 128.669 197.999 128.062C197.447 127.471 197.013 126.759 196.727 125.971C195.973 127.361 194.89 128.5 193.594 129.264C192.265 129.954 190.809 130.29 189.341 130.247C187.089 130.281 184.86 129.759 182.816 128.719C180.772 127.678 178.966 126.146 177.531 124.236C176.095 122.357 175.014 120.182 174.35 117.838C173.618 115.285 173.25 112.622 173.259 109.945C173.238 107.258 173.64 104.588 174.445 102.052C175.169 99.7047 176.318 97.5437 177.822 95.6999C179.327 93.8562 181.156 92.3681 183.198 91.3261C185.357 90.2271 187.712 89.6734 190.091 89.7057C190.62 89.7245 191.146 89.8122 191.657 89.967C192.303 90.1372 192.938 90.3573 193.556 90.6256C194.194 90.8831 194.798 91.2347 195.35 91.671C195.908 92.1063 196.407 92.6274 196.831 93.2183V79.5442C196.869 78.7792 196.668 78.0229 196.262 77.4011C195.882 76.9174 195.473 76.4632 195.037 76.042C194.606 75.6173 194.208 75.1521 193.85 74.6516C193.429 73.9626 193.229 73.1385 193.281 72.3099C193.304 71.8199 193.422 71.3411 193.629 70.9062C193.835 70.4714 194.125 70.0908 194.477 69.7904C195.374 68.9024 196.405 68.1947 197.524 67.6996C200.16 66.4707 202.989 65.8242 205.85 65.7969C206.232 65.7772 206.613 65.8558 206.962 66.0263C207.311 66.1969 207.62 66.4548 207.863 66.7796C208.319 67.3179 208.582 68.0199 208.603 68.7555L208.594 115.768ZM196.755 103.003C196.755 101.843 196.605 100.688 196.309 99.5744C196.039 98.559 195.632 97.5936 195.103 96.71C194.639 95.9391 194.031 95.2868 193.319 94.7968C192.705 94.3576 191.991 94.1184 191.258 94.1069C190.819 94.1204 190.388 94.2408 189.995 94.4595C189.603 94.6782 189.26 94.9898 188.99 95.3718C188.232 96.3769 187.653 97.5293 187.281 98.7694C186.761 100.396 186.398 102.078 186.198 103.787C185.705 107.888 185.705 112.043 186.198 116.144C186.402 117.853 186.765 119.535 187.281 121.162C187.663 122.399 188.249 123.547 189.008 124.549C189.279 124.933 189.624 125.246 190.018 125.465C190.412 125.684 190.846 125.803 191.287 125.814C191.704 125.798 192.113 125.683 192.487 125.478C192.86 125.272 193.189 124.98 193.452 124.623C194.157 123.74 194.733 122.742 195.16 121.664C195.666 120.419 196.051 119.119 196.309 117.786C196.573 116.492 196.71 115.17 196.717 113.844L196.755 103.003Z" fill="black"/>
<path d="M248.155 121.696C248.342 121.694 248.528 121.663 248.706 121.602C248.936 121.525 249.179 121.5 249.418 121.529C249.533 121.545 249.644 121.59 249.741 121.661C249.838 121.731 249.919 121.826 249.978 121.936C250.162 122.359 250.241 122.828 250.206 123.295C250.223 124.347 250.008 125.387 249.579 126.327C249.169 127.154 248.595 127.869 247.899 128.418C247.177 129.004 246.367 129.446 245.507 129.725C244.579 130.007 243.621 130.147 242.658 130.143C241.375 130.193 240.093 130.017 238.861 129.62C238.065 129.341 237.31 128.936 236.62 128.418C236.054 127.975 235.594 127.387 235.282 126.703C234.108 127.996 232.659 128.945 231.067 129.463C229.502 129.936 227.886 130.172 226.263 130.164C222.82 130.164 220.13 129.334 218.193 127.676C216.295 126.003 215.279 123.421 215.279 119.919C215.252 118.322 215.609 116.746 216.314 115.35C217.006 114.005 217.916 112.81 219 111.827C220.169 110.775 221.443 109.873 222.798 109.14C224.22 108.362 225.678 107.664 227.165 107.05C228.655 106.433 230.098 105.91 231.494 105.44C232.889 104.969 234.124 104.457 235.215 103.997V99.7002C235.226 98.2815 234.816 96.8976 234.048 95.759C233.686 95.1878 233.198 94.727 232.63 94.4199C232.062 94.1127 231.433 93.9692 230.801 94.0027C230.351 93.9741 229.905 94.1177 229.54 94.4092C229.175 94.7007 228.913 95.1221 228.798 95.6022C228.425 96.8062 228.248 98.0731 228.276 99.3448C228.32 100.193 228.173 101.041 227.848 101.812C227.543 102.44 227.127 102.995 226.624 103.443C226.137 103.919 225.564 104.275 224.943 104.488C224.363 104.674 223.763 104.772 223.158 104.781C222.549 104.768 221.945 104.659 221.364 104.457C220.679 104.237 220.036 103.883 219.465 103.411C218.786 102.831 218.243 102.08 217.879 101.222C217.516 100.364 217.344 99.4231 217.377 98.4771C217.368 97.3058 217.679 96.1587 218.269 95.184C218.99 94.0682 219.919 93.1345 220.994 92.445C222.236 91.5604 223.585 90.8708 225 90.396C226.688 89.8823 228.433 89.6324 230.184 89.6537C232.546 89.5987 234.894 90.0717 237.086 91.0441C239.11 91.9576 240.94 93.3246 242.459 95.0585C243.962 96.8354 245.127 98.9255 245.886 101.206C246.704 103.681 247.109 106.298 247.082 108.931V119.521C247.101 120.985 247.453 121.696 248.155 121.696ZM235.272 108.325C230.348 109.719 227.889 113.28 227.896 119.009C227.874 120.07 228.002 121.128 228.276 122.145C228.457 122.857 228.782 123.514 229.225 124.069C229.545 124.462 229.936 124.778 230.372 124.997C230.808 125.216 231.28 125.335 231.76 125.344C232.255 125.31 232.736 125.141 233.158 124.853C233.58 124.564 233.932 124.166 234.181 123.693C235.003 122.16 235.38 120.387 235.263 118.612L235.272 108.325Z" fill="black"/>
<path d="M291.702 115.621C291.687 116.494 291.88 117.356 292.263 118.12C292.63 118.859 293.028 119.601 293.459 120.347C293.876 121.079 294.285 121.831 294.655 122.605C295.046 123.441 295.242 124.372 295.225 125.312C295.225 127.121 294.275 128.344 292.538 129.013C288.104 130.324 283.434 130.324 279 129.013C277.209 128.365 276.313 127.138 276.313 125.333C276.284 124.397 276.474 123.468 276.864 122.636C277.234 121.863 277.633 121.11 278.051 120.368C278.468 119.625 278.876 118.894 279.237 118.151C279.625 117.389 279.819 116.526 279.797 115.653V104.153C279.873 101.618 279.515 99.0895 278.744 96.6993C278.499 95.8705 278.017 95.1514 277.37 94.6499C276.723 94.1485 275.946 93.8918 275.155 93.9185C274.181 93.8808 273.228 94.2296 272.468 94.9012C271.668 95.6308 271.001 96.5213 270.503 97.5252C269.954 98.6347 269.552 99.8245 269.307 101.059C269.046 102.24 268.913 103.45 268.908 104.665V115.642C268.901 116.517 269.094 117.38 269.468 118.151C269.848 118.894 270.247 119.625 270.674 120.357C271.101 121.089 271.49 121.852 271.87 122.605C272.251 123.445 272.44 124.374 272.421 125.312C272.434 126.169 272.178 127.005 271.698 127.679C271.217 128.352 270.54 128.824 269.782 129.013C267.597 129.736 265.321 130.068 263.041 129.996C260.743 130.057 258.45 129.726 256.244 129.013C254.459 128.355 253.557 127.131 253.557 125.323C253.538 124.38 253.73 123.446 254.117 122.605C254.497 121.842 254.886 121.079 255.304 120.347C255.721 119.615 256.13 118.862 256.5 118.12C256.881 117.352 257.071 116.486 257.051 115.611V103.265C257.088 102.517 256.89 101.779 256.49 101.174C256.129 100.686 255.728 100.235 255.294 99.8251C254.855 99.3726 254.449 98.8832 254.079 98.3615C253.668 97.6683 253.474 96.8457 253.528 96.0198C253.548 95.5315 253.664 95.0539 253.869 94.6204C254.074 94.1869 254.363 93.8082 254.715 93.5108C255.619 92.6277 256.653 91.9206 257.772 91.42C259.096 90.8209 260.469 90.3657 261.873 90.0609C263.271 89.7478 264.691 89.5798 266.117 89.5591C266.499 89.5378 266.88 89.6156 267.23 89.7863C267.579 89.957 267.888 90.2158 268.13 90.5418C268.586 91.0816 268.855 91.7812 268.889 92.5177V93.8244C269.516 92.4813 270.487 91.3693 271.68 90.6254C272.874 89.9016 274.22 89.5408 275.582 89.58C277.863 89.5411 280.14 89.7866 282.37 90.3118C284.196 90.7121 285.924 91.5353 287.44 92.7267C288.85 93.8673 289.95 95.411 290.62 97.1907C291.399 99.3909 291.77 101.74 291.712 104.101L291.702 115.621Z" fill="black"/>
<path d="M328.215 81.9701C328.803 81.9396 329.39 82.0479 329.937 82.2877C330.484 82.5275 330.978 82.8933 331.386 83.3605C331.779 83.7714 332.091 84.2659 332.305 84.8141C332.519 85.3622 332.629 85.9525 332.63 86.549C332.659 87.5905 332.411 88.6187 331.918 89.5075C331.47 90.2916 330.854 90.9416 330.123 91.3997C329.337 91.8903 328.479 92.2264 327.589 92.3929C326.647 92.5822 325.696 92.7078 324.74 92.7692C326.672 94.1369 328.295 95.9709 329.487 98.1322C330.576 100.098 331.193 102.336 331.281 104.636C331.369 106.937 330.925 109.224 329.99 111.284C329.113 113.175 327.895 114.85 326.411 116.208C324.81 117.674 322.988 118.82 321.028 119.595C318.925 120.432 316.704 120.853 314.468 120.839C311.582 120.839 309.421 121.497 307.984 122.815C306.675 123.89 305.762 125.449 305.411 127.205C305.124 128.721 305.394 130.299 306.161 131.596C306.544 132.249 307.079 132.777 307.71 133.125C308.341 133.472 309.046 133.627 309.75 133.572C310.655 133.614 311.543 133.29 312.247 132.662C312.88 132.03 313.407 131.28 313.804 130.446C314.222 129.568 314.639 128.596 315.028 127.561C315.409 126.552 315.883 125.588 316.443 124.686C317.003 123.802 317.712 123.046 318.532 122.459C319.55 121.81 320.717 121.497 321.892 121.56C323.336 121.516 324.775 121.75 326.146 122.25C327.237 122.646 328.243 123.286 329.098 124.132C329.817 124.854 330.392 125.734 330.784 126.716C331.176 127.697 331.378 128.757 331.377 129.829C331.379 130.703 331.241 131.57 330.968 132.391C330.703 133.196 330.314 133.946 329.82 134.607C329.294 135.279 328.647 135.824 327.921 136.206C327.157 136.624 326.314 136.836 325.462 136.823C324.864 136.885 324.261 136.804 323.694 136.585C323.127 136.367 322.61 136.017 322.177 135.558C321.494 134.745 320.973 133.784 320.649 132.736C320.326 131.69 320.07 130.739 319.889 129.892C319.709 129.045 319.386 128.617 318.883 128.617C318.38 128.617 318.076 129.098 318.104 130.018C318.133 130.938 318.218 132.108 318.37 133.509C318.522 134.91 318.636 136.468 318.712 138.067C318.802 139.618 318.602 141.173 318.123 142.636C317.64 144.045 316.784 145.262 315.665 146.127C314.103 147.143 312.301 147.62 310.49 147.497C308.459 147.552 306.454 146.972 304.709 145.824C303.068 144.734 301.665 143.26 300.598 141.507C299.516 139.718 298.776 137.704 298.424 135.59C298.054 133.431 298.054 131.215 298.424 129.056C298.803 126.866 299.617 124.795 300.807 122.992C302.117 121.046 303.846 119.491 305.839 118.466C303.498 117.193 301.489 115.286 300 112.925C298.737 110.918 297.983 108.576 297.817 106.141C297.65 103.706 298.076 101.266 299.051 99.0731C299.918 97.1448 301.14 95.436 302.639 94.0551C304.221 92.6026 306.02 91.4636 307.956 90.6889C310.05 89.8557 312.261 89.4346 314.487 89.4448C315.212 89.4429 315.935 89.4988 316.652 89.6121C317.345 89.7166 318.047 89.8421 318.74 90.0093C319.277 90.1631 319.841 90.1611 320.377 90.0036C320.912 89.846 321.402 89.5382 321.797 89.1103C322.466 88.2393 323.04 87.285 323.506 86.2667C324 85.2278 324.575 84.2379 325.225 83.3082C325.592 82.8415 326.055 82.477 326.574 82.2445C327.094 82.0119 327.656 81.9179 328.215 81.9701ZM314.459 116.563C314.781 116.554 315.098 116.469 315.387 116.314C315.677 116.159 315.934 115.937 316.139 115.664C316.721 114.964 317.176 114.148 317.478 113.259C317.896 112.104 318.199 110.902 318.38 109.674C318.606 108.202 318.714 106.712 318.703 105.22C318.711 103.759 318.599 102.3 318.37 100.861C318.159 99.6211 317.841 98.4065 317.421 97.2332C317.138 96.336 316.703 95.506 316.139 94.7869C315.929 94.5206 315.671 94.3045 315.382 94.1517C315.093 93.9989 314.779 93.9127 314.459 93.8983C314.144 93.9081 313.834 93.9937 313.552 94.149C313.27 94.3043 313.022 94.5256 312.826 94.7974C312.256 95.5165 311.811 96.346 311.516 97.2436C311.11 98.4174 310.811 99.6325 310.623 100.871C310.174 103.788 310.174 106.767 310.623 109.684C310.802 110.911 311.102 112.114 311.516 113.27C311.821 114.15 312.265 114.963 312.826 115.674C313.022 115.946 313.27 116.166 313.552 116.32C313.834 116.474 314.144 116.557 314.459 116.563Z" fill="black"/>
<path d="M316.69 91.242C319.614 83.6209 325.234 74.8184 332.829 72.5081C340.168 70.2918 348.769 70.6681 355.395 74.8603L354 69.0895C350.81 74.9125 347.487 80.7878 343.12 85.649C337.946 91.4406 332.459 93.6674 325.206 94.786C320.335 95.5491 322.405 103.662 327.256 102.94C343.661 100.4 352.471 88.3044 360.645 73.3549C361.145 72.3835 361.28 71.2361 361.023 70.1565C360.766 69.0769 360.137 68.1503 359.269 67.5737C350.354 61.9284 338.383 61.3012 328.661 65.0542C319.367 68.6714 312.902 79.4706 309.266 88.9839C307.367 94.0019 314.772 96.1868 316.671 91.2315L316.69 91.242Z" fill="black"/>
<path d="M108.408 63.7689C93.9112 52.1021 75.8353 43.9164 57.8448 50.0949C38.7151 56.6601 26.1455 85.4614 4.21516 80.9765L3.19933 89.3399C15.7404 90.678 25.6328 100.453 37.5094 104.07C48.4658 107.265 60.0411 106.767 70.7372 102.638C75.4175 100.923 72.4555 93.1243 67.7751 94.8283C56.096 99.221 43.3343 98.5367 32.098 92.9152C22.7847 88.3049 14.6392 82.0638 4.21516 80.9765C-0.71205 80.4538 -1.66142 88.3677 3.19933 89.3399C21.3322 93.0616 33.579 78.0285 46.4429 66.7588C64.9081 50.6594 85.8511 56.0537 103.68 70.4178C107.677 73.6481 112.414 66.9993 108.408 63.7689Z" fill="black"/>
<path d="M197.47 53.2101C197.466 52.0088 197.577 50.8104 197.802 49.6348C197.992 48.6118 198.295 47.6182 198.704 46.6763C198.996 45.9258 199.43 45.2523 199.976 44.7004C200.408 44.2592 200.973 44.0097 201.562 44C202.159 44.0098 202.733 44.2588 203.175 44.7004C203.744 45.2401 204.192 45.916 204.486 46.6763C204.887 47.6024 205.187 48.5781 205.378 49.5825C205.607 50.7609 205.719 51.9633 205.71 53.1683C205.721 54.3522 205.613 55.5338 205.387 56.6914C205.19 57.6874 204.891 58.6554 204.495 59.5767C204.181 60.3264 203.728 60.9957 203.166 61.5421C202.719 61.9837 202.143 62.2324 201.543 62.2426C200.954 62.2309 200.39 61.9817 199.957 61.5421C199.41 60.9922 198.974 60.3229 198.675 59.5767C198.268 58.6631 197.965 57.6975 197.774 56.7018C197.559 55.5533 197.457 54.3827 197.47 53.2101Z" fill="black"/>
<path d="M189.675 62.6187C189.049 62.0561 188.479 61.4218 187.975 60.7265C187.536 60.1293 187.163 59.4765 186.865 58.782C186.621 58.2409 186.482 57.65 186.456 57.0466C186.43 56.5611 186.565 56.0816 186.836 55.698C187.129 55.3237 187.532 55.0755 187.975 54.9976C188.519 54.8994 189.075 54.9279 189.608 55.0812C190.287 55.274 190.943 55.551 191.564 55.9071C192.275 56.3225 192.947 56.8163 193.567 57.3811C194.192 57.9452 194.761 58.5793 195.267 59.2733C195.694 59.8679 196.06 60.5131 196.358 61.1969C196.602 61.7447 196.738 62.3433 196.757 62.9532C196.773 63.4437 196.632 63.9248 196.358 64.3123C196.076 64.6866 195.676 64.9294 195.238 64.9918C194.697 65.0863 194.144 65.0542 193.615 64.8977C192.954 64.7153 192.317 64.4449 191.716 64.0927C190.986 63.6904 190.301 63.1957 189.675 62.6187Z" fill="black"/>
<path d="M211.936 63.1306C211.334 63.4751 210.697 63.7384 210.037 63.9146C209.521 64.0709 208.981 64.103 208.452 64.0087C208.026 63.9492 207.635 63.7138 207.36 63.3501C207.087 62.9749 206.949 62.5025 206.971 62.0224C206.987 61.4312 207.116 60.8504 207.351 60.3184C207.639 59.6487 207.996 59.0174 208.414 58.4366C208.909 57.7624 209.466 57.1458 210.075 56.5967C210.676 56.0398 211.332 55.5594 212.031 55.1645C212.634 54.8182 213.271 54.5482 213.93 54.3595C214.451 54.2117 214.994 54.1833 215.525 54.2759C215.956 54.3386 216.349 54.5801 216.625 54.9511C216.9 55.3221 217.036 55.7947 217.006 56.2726C216.979 56.8578 216.843 57.4307 216.607 57.9557C216.314 58.634 215.951 59.2725 215.525 59.8584C215.032 60.5351 214.475 61.1519 213.863 61.6983C213.276 62.26 212.629 62.7409 211.936 63.1306Z" fill="black"/>
<path fill-rule="evenodd" clip-rule="evenodd" d="M550.375 94.1404C550.375 56.0887 510.808 25.25 461.992 25.25H462C413.183 25.25 373.625 56.0971 373.625 94.1404C373.625 118.347 389.659 139.641 413.899 151.929L406.391 182.886C404.657 188.348 406.147 188.592 410.364 186.362L447.464 162.097C452.286 162.705 457.14 163.014 462 163.022C510.808 163.022 550.375 132.184 550.375 94.1404Z" fill="#89C97B"/>
<path d="M431.914 112.144L429.958 107.005H413.31L411.355 112.256C410.591 114.304 409.939 115.692 409.399 116.418C408.859 117.126 407.975 117.479 406.746 117.479C405.703 117.479 404.781 117.098 403.98 116.334C403.18 115.571 402.779 114.705 402.779 113.736C402.779 113.178 402.872 112.6 403.059 112.005C403.245 111.409 403.552 110.58 403.98 109.518L414.455 82.9262C414.753 82.1626 415.107 81.2502 415.517 80.1887C415.945 79.1086 416.392 78.2148 416.858 77.5071C417.342 76.7995 417.966 76.2315 418.729 75.8032C419.511 75.3563 420.47 75.1328 421.606 75.1328C422.761 75.1328 423.72 75.3563 424.483 75.8032C425.265 76.2315 425.889 76.7902 426.355 77.4792C426.839 78.1682 427.239 78.9131 427.556 79.7138C427.891 80.496 428.31 81.5481 428.813 82.8703L439.511 109.295C440.349 111.306 440.768 112.768 440.768 113.681C440.768 114.63 440.368 115.505 439.567 116.306C438.785 117.088 437.835 117.479 436.718 117.479C436.066 117.479 435.508 117.358 435.042 117.116C434.576 116.893 434.185 116.586 433.869 116.194C433.552 115.785 433.208 115.17 432.835 114.351C432.482 113.513 432.174 112.777 431.914 112.144ZM415.489 100.775H427.724L421.55 83.8759L415.489 100.775Z" fill="white"/>
<path d="M478.003 104.491C478.003 106.967 477.361 109.193 476.076 111.167C474.81 113.14 472.947 114.686 470.489 115.803C468.031 116.921 465.117 117.479 461.746 117.479C457.705 117.479 454.372 116.716 451.746 115.189C449.884 114.09 448.366 112.628 447.193 110.803C446.038 108.96 445.461 107.172 445.461 105.44C445.461 104.435 445.806 103.578 446.495 102.87C447.202 102.144 448.096 101.781 449.176 101.781C450.051 101.781 450.787 102.06 451.383 102.619C451.997 103.178 452.519 104.006 452.947 105.105C453.469 106.409 454.027 107.498 454.623 108.373C455.238 109.248 456.094 109.975 457.193 110.552C458.292 111.111 459.735 111.39 461.523 111.39C463.981 111.39 465.973 110.822 467.5 109.686C469.046 108.532 469.819 107.098 469.819 105.384C469.819 104.025 469.4 102.926 468.562 102.088C467.742 101.232 466.672 100.58 465.349 100.133C464.046 99.686 462.295 99.2112 460.098 98.7084C457.156 98.0193 454.688 97.2186 452.696 96.3061C450.722 95.375 449.148 94.118 447.975 92.5351C446.821 90.9336 446.243 88.9504 446.243 86.5854C446.243 84.3321 446.858 82.3302 448.087 80.5798C449.316 78.8293 451.094 77.4885 453.422 76.5574C455.75 75.6077 458.487 75.1328 461.634 75.1328C464.148 75.1328 466.318 75.4494 468.143 76.0825C469.986 76.6971 471.513 77.5257 472.724 78.5686C473.934 79.5928 474.819 80.6729 475.377 81.8088C475.936 82.9448 476.215 84.0528 476.215 85.1329C476.215 86.1198 475.862 87.0137 475.154 87.8144C474.465 88.5966 473.599 88.9876 472.556 88.9876C471.607 88.9876 470.88 88.7549 470.377 88.2893C469.893 87.8051 469.363 87.023 468.785 85.9429C468.04 84.3973 467.147 83.1962 466.104 82.3396C465.061 81.4643 463.385 81.0267 461.076 81.0267C458.934 81.0267 457.202 81.5016 455.88 82.4513C454.577 83.3824 453.925 84.509 453.925 85.8312C453.925 86.6506 454.148 87.3582 454.595 87.9541C455.042 88.55 455.657 89.0621 456.439 89.4904C457.221 89.9187 458.012 90.2539 458.813 90.496C459.614 90.7381 460.936 91.0919 462.78 91.5575C465.089 92.0975 467.174 92.6934 469.037 93.3452C470.917 93.997 472.51 94.7884 473.813 95.7195C475.135 96.6506 476.16 97.8331 476.886 99.267C477.631 100.682 478.003 102.423 478.003 104.491Z" fill="white"/>
<path d="M493.394 80.1608V94.5184L509.679 77.5351C510.461 76.7157 511.123 76.1105 511.663 75.7194C512.221 75.3283 512.957 75.1328 513.869 75.1328C515.061 75.1328 516.02 75.4866 516.746 76.1943C517.491 76.8833 517.864 77.7306 517.864 78.7362C517.864 79.9466 517.24 81.1477 515.992 82.3396L505.908 91.8927L517.529 108.541C518.348 109.695 518.962 110.71 519.372 111.586C519.782 112.442 519.987 113.28 519.987 114.1C519.987 115.012 519.624 115.803 518.897 116.474C518.19 117.144 517.221 117.479 515.992 117.479C514.838 117.479 513.897 117.237 513.171 116.753C512.445 116.25 511.83 115.589 511.327 114.77C510.825 113.951 510.378 113.206 509.987 112.535L500.182 97.4514L493.394 103.96V112.424C493.394 114.137 493.003 115.412 492.221 116.25C491.439 117.07 490.433 117.479 489.204 117.479C488.497 117.479 487.817 117.293 487.165 116.921C486.513 116.548 486.011 116.046 485.657 115.412C485.396 114.891 485.238 114.286 485.182 113.597C485.126 112.908 485.098 111.911 485.098 110.608V80.1608C485.098 78.4848 485.461 77.2278 486.188 76.3898C486.932 75.5518 487.938 75.1328 489.204 75.1328C490.452 75.1328 491.458 75.5518 492.221 76.3898C493.003 77.2092 493.394 78.4662 493.394 80.1608Z" fill="white"/>
</svg>
