<svg width="245" height="56" viewBox="0 0 245 56" fill="none" xmlns="http://www.w3.org/2000/svg">
<path d="M5.8 29.92V26.76H13.32C14.9467 26.76 16.2 26.3467 17.08 25.52C17.96 24.6933 18.4 23.5733 18.4 22.16C18.4 20.8267 17.96 19.72 17.08 18.84C16.2267 17.96 14.9867 17.52 13.36 17.52H5.8V14.24H13.48C15.24 14.24 16.7733 14.5867 18.08 15.28C19.3867 15.9467 20.3867 16.8667 21.08 18.04C21.8 19.2133 22.16 20.56 22.16 22.08C22.16 23.6533 21.8 25.0267 21.08 26.2C20.3867 27.3733 19.3867 28.2933 18.08 28.96C16.7733 29.6 15.24 29.92 13.48 29.92H5.8ZM3.28 42V14.24H7.04V42H3.28ZM19.28 42L9.2 29.56L12.76 28.32L24.04 42H19.28ZM26.2753 42V23H29.8753V42H26.2753ZM28.0753 19.2C27.4086 19.2 26.862 18.9867 26.4353 18.56C26.0086 18.1067 25.7953 17.5467 25.7953 16.88C25.7953 16.24 26.0086 15.7067 26.4353 15.28C26.862 14.8267 27.4086 14.6 28.0753 14.6C28.742 14.6 29.2886 14.8267 29.7153 15.28C30.142 15.7067 30.3553 16.24 30.3553 16.88C30.3553 17.5467 30.142 18.1067 29.7153 18.56C29.2886 18.9867 28.742 19.2 28.0753 19.2ZM47.0206 42V30.92C47.0206 29.48 46.5673 28.2933 45.6606 27.36C44.754 26.4267 43.5806 25.96 42.1406 25.96C41.1806 25.96 40.3273 26.1733 39.5806 26.6C38.834 27.0267 38.2473 27.6133 37.8206 28.36C37.394 29.1067 37.1806 29.96 37.1806 30.92L35.7006 30.08C35.7006 28.64 36.0206 27.36 36.6606 26.24C37.3006 25.12 38.194 24.24 39.3406 23.6C40.4873 22.9333 41.7806 22.6 43.2206 22.6C44.6606 22.6 45.9273 22.96 47.0206 23.68C48.1406 24.4 49.0206 25.3467 49.6606 26.52C50.3006 27.6667 50.6206 28.8933 50.6206 30.2V42H47.0206ZM33.5806 42V23H37.1806V42H33.5806ZM61.9347 42.4C60.1747 42.4 58.6014 41.9733 57.2147 41.12C55.828 40.24 54.7214 39.0533 53.8947 37.56C53.0947 36.0667 52.6947 34.3867 52.6947 32.52C52.6947 30.6533 53.0947 28.9733 53.8947 27.48C54.7214 25.9867 55.828 24.8 57.2147 23.92C58.6014 23.04 60.1747 22.6 61.9347 22.6C63.348 22.6 64.628 22.9067 65.7747 23.52C66.9214 24.1067 67.8414 24.9333 68.5347 26C69.2547 27.04 69.6547 28.2533 69.7347 29.64V35.36C69.6547 36.72 69.268 37.9333 68.5747 39C67.8814 40.0667 66.9614 40.9067 65.8147 41.52C64.668 42.1067 63.3747 42.4 61.9347 42.4ZM62.5347 39C63.7347 39 64.7747 38.72 65.6547 38.16C66.5614 37.6 67.268 36.84 67.7747 35.88C68.2814 34.8933 68.5347 33.7733 68.5347 32.52C68.5347 31.2133 68.268 30.08 67.7347 29.12C67.228 28.16 66.5214 27.4 65.6147 26.84C64.7347 26.28 63.6947 26 62.4947 26C61.2947 26 60.2414 26.28 59.3347 26.84C58.428 27.4 57.708 28.1733 57.1747 29.16C56.668 30.12 56.4147 31.2267 56.4147 32.48C56.4147 33.76 56.668 34.8933 57.1747 35.88C57.708 36.84 58.428 37.6 59.3347 38.16C60.268 38.72 61.3347 39 62.5347 39ZM71.9347 42H68.2947V36.88L68.9747 32.24L68.2947 27.64V13.44H71.9347V42ZM83.6559 42.4C81.9226 42.4 80.3493 41.9733 78.9359 41.12C77.5226 40.24 76.4026 39.0533 75.5759 37.56C74.7759 36.0667 74.3759 34.3867 74.3759 32.52C74.3759 30.6533 74.7759 28.9733 75.5759 27.48C76.4026 25.9867 77.5093 24.8 78.8959 23.92C80.3093 23.04 81.8959 22.6 83.6559 22.6C85.0959 22.6 86.3759 22.9067 87.4959 23.52C88.6426 24.1067 89.5626 24.9333 90.2559 26C90.9493 27.04 91.3359 28.2533 91.4159 29.64V35.36C91.3359 36.72 90.9493 37.9333 90.2559 39C89.5893 40.0667 88.6826 40.9067 87.5359 41.52C86.4159 42.1067 85.1226 42.4 83.6559 42.4ZM84.2559 39C86.0426 39 87.4826 38.4 88.5759 37.2C89.6693 35.9733 90.2159 34.4133 90.2159 32.52C90.2159 31.2133 89.9626 30.08 89.4559 29.12C88.9759 28.1333 88.2826 27.3733 87.3759 26.84C86.4693 26.28 85.4159 26 84.2159 26C83.0159 26 81.9493 26.28 81.0159 26.84C80.1093 27.4 79.3893 28.1733 78.8559 29.16C78.3493 30.12 78.0959 31.2267 78.0959 32.48C78.0959 33.76 78.3493 34.8933 78.8559 35.88C79.3893 36.84 80.1226 37.6 81.0559 38.16C81.9893 38.72 83.0559 39 84.2559 39ZM89.9759 42V36.88L90.6559 32.24L89.9759 27.64V23H93.6159V42H89.9759ZM110.697 42V30.92C110.697 29.48 110.244 28.2933 109.337 27.36C108.431 26.4267 107.257 25.96 105.817 25.96C104.857 25.96 104.004 26.1733 103.257 26.6C102.511 27.0267 101.924 27.6133 101.497 28.36C101.071 29.1067 100.857 29.96 100.857 30.92L99.3772 30.08C99.3772 28.64 99.6972 27.36 100.337 26.24C100.977 25.12 101.871 24.24 103.017 23.6C104.164 22.9333 105.457 22.6 106.897 22.6C108.337 22.6 109.604 22.96 110.697 23.68C111.817 24.4 112.697 25.3467 113.337 26.52C113.977 27.6667 114.297 28.8933 114.297 30.2V42H110.697ZM97.2572 42V23H100.857V42H97.2572ZM125.451 50.36C123.505 50.36 121.771 50 120.251 49.28C118.758 48.56 117.558 47.5467 116.651 46.24L118.971 43.88C119.745 44.8667 120.665 45.6133 121.731 46.12C122.798 46.6533 124.065 46.92 125.531 46.92C127.478 46.92 129.011 46.4 130.131 45.36C131.278 44.3467 131.851 42.9733 131.851 41.24V36.52L132.491 32.24L131.851 28V23H135.451V41.24C135.451 43.0533 135.025 44.64 134.171 46C133.345 47.36 132.171 48.4267 130.651 49.2C129.158 49.9733 127.425 50.36 125.451 50.36ZM125.451 41.68C123.718 41.68 122.158 41.2667 120.771 40.44C119.411 39.6133 118.331 38.48 117.531 37.04C116.731 35.5733 116.331 33.9333 116.331 32.12C116.331 30.3067 116.731 28.6933 117.531 27.28C118.331 25.84 119.411 24.7067 120.771 23.88C122.158 23.0267 123.718 22.6 125.451 22.6C126.945 22.6 128.265 22.8933 129.411 23.48C130.558 24.0667 131.465 24.8933 132.131 25.96C132.825 27 133.198 28.2267 133.251 29.64V34.68C133.171 36.0667 132.785 37.2933 132.091 38.36C131.425 39.4 130.518 40.2133 129.371 40.8C128.225 41.3867 126.918 41.68 125.451 41.68ZM126.171 38.28C127.345 38.28 128.371 38.0267 129.251 37.52C130.158 37.0133 130.851 36.3067 131.331 35.4C131.811 34.4667 132.051 33.3867 132.051 32.16C132.051 30.9333 131.798 29.8667 131.291 28.96C130.811 28.0267 130.131 27.3067 129.251 26.8C128.371 26.2667 127.331 26 126.131 26C124.931 26 123.878 26.2667 122.971 26.8C122.065 27.3067 121.345 28.0267 120.811 28.96C120.305 29.8667 120.051 30.92 120.051 32.12C120.051 33.32 120.305 34.3867 120.811 35.32C121.345 36.2533 122.065 36.9867 122.971 37.52C123.905 38.0267 124.971 38.28 126.171 38.28ZM143.323 42L154.683 14.24H157.403L168.723 42H164.643L155.323 18.52H156.723L147.323 42H143.323ZM148.723 35.72V32.44H163.323V35.72H148.723ZM171.302 42V14.24H175.062V42H171.302Z" fill="#F26749"/>
<path d="M197.747 38.4999C198.118 38.4994 198.48 38.6172 198.781 38.8361C199.081 39.0551 199.303 39.3639 199.416 39.7179L200.312 42.5074C200.485 43.021 200.774 43.4879 201.157 43.8721C201.539 44.2562 202.005 44.5473 202.517 44.7229L205.279 45.5909C205.634 45.7022 205.945 45.924 206.166 46.224C206.386 46.524 206.506 46.8866 206.506 47.2591C206.506 47.6316 206.388 47.9944 206.168 48.2949C205.948 48.5954 205.638 48.8178 205.282 48.9299L202.517 49.8119C202.003 49.985 201.536 50.2753 201.154 50.6598C200.771 51.0443 200.483 51.5125 200.312 52.0274L199.43 54.7819C199.318 55.133 199.098 55.4398 198.801 55.6584C198.505 55.8771 198.147 55.9965 197.778 55.9996C197.409 56.0027 197.049 55.8893 196.749 55.6757C196.449 55.4621 196.223 55.1591 196.105 54.8099L195.174 52.0449C194.997 51.5277 194.705 51.0576 194.319 50.6701C193.933 50.2827 193.465 49.988 192.948 49.8084L190.215 48.9264C189.865 48.812 189.559 48.59 189.342 48.2919C189.126 47.9939 189.009 47.635 189.008 47.2664C189.007 46.8979 189.123 46.5385 189.338 46.2395C189.554 45.9405 189.858 45.7172 190.208 45.6014L192.987 44.6914C193.503 44.5159 193.971 44.2247 194.357 43.84C194.743 43.4554 195.036 42.9876 195.213 42.4724L196.081 39.7214C196.193 39.3668 196.416 39.0572 196.716 38.8375C197.016 38.6179 197.375 38.4996 197.747 38.4999ZM192.5 26.2954C192.499 25.5555 192.732 24.8342 193.165 24.2349C193.599 23.6356 194.212 23.1892 194.915 22.9599L203.956 20.0059C205.955 19.3265 207.772 18.1982 209.268 16.7076C210.763 15.2169 211.898 13.4035 212.583 11.4064L215.411 2.44639C215.635 1.7379 216.078 1.11894 216.677 0.679093C217.276 0.239244 217.999 0.00132271 218.742 -0.000236429C219.485 -0.00179556 220.209 0.233088 220.809 0.670421C221.41 1.10775 221.856 1.72485 222.082 2.43239L224.994 11.5254C225.664 13.52 226.786 15.3328 228.272 16.8221C229.759 18.3114 231.569 19.437 233.562 20.1109L242.554 22.9494C243.262 23.173 243.881 23.6162 244.321 24.2149C244.761 24.8137 244.999 25.5368 245.001 26.2798C245.002 27.0227 244.767 27.7468 244.33 28.3474C243.893 28.948 243.275 29.3938 242.568 29.6204L233.566 32.5009C231.572 33.1747 229.76 34.3006 228.273 35.7906C226.786 37.2805 225.664 39.0942 224.994 41.0899L222.124 50.0674C221.899 50.7694 221.459 51.3824 220.865 51.8191C220.271 52.2558 219.554 52.4938 218.817 52.4992C218.08 52.5046 217.36 52.2772 216.76 51.8493C216.159 51.4214 215.71 50.815 215.474 50.1164L212.443 41.1319V41.1249C211.759 39.1271 210.629 37.3115 209.139 35.8159C207.648 34.3204 205.836 33.1843 203.84 32.4939L194.926 29.6204C194.222 29.3934 193.609 28.9494 193.173 28.3521C192.737 27.7547 192.502 27.0348 192.5 26.2954Z" fill="#F26749"/>
</svg>
