<svg width="351" height="72" viewBox="0 0 351 72" fill="none" xmlns="http://www.w3.org/2000/svg">
<path d="M185 54H167V42H185M212 42V36L209 21H161L158 36V42H161V60H191V42H203V60H209V42M209 12H161V18H209V12Z" fill="#FCB45E"/>
<path d="M5.8 37.92V34.76H13.32C14.9467 34.76 16.2 34.3467 17.08 33.52C17.96 32.6933 18.4 31.5733 18.4 30.16C18.4 28.8267 17.96 27.72 17.08 26.84C16.2267 25.96 14.9867 25.52 13.36 25.52H5.8V22.24H13.48C15.24 22.24 16.7733 22.5867 18.08 23.28C19.3867 23.9467 20.3867 24.8667 21.08 26.04C21.8 27.2133 22.16 28.56 22.16 30.08C22.16 31.6533 21.8 33.0267 21.08 34.2C20.3867 35.3733 19.3867 36.2933 18.08 36.96C16.7733 37.6 15.24 37.92 13.48 37.92H5.8ZM3.28 50V22.24H7.04V50H3.28ZM19.28 50L9.2 37.56L12.76 36.32L24.04 50H19.28ZM26.2753 50V31H29.8753V50H26.2753ZM28.0753 27.2C27.4086 27.2 26.862 26.9867 26.4353 26.56C26.0086 26.1067 25.7953 25.5467 25.7953 24.88C25.7953 24.24 26.0086 23.7067 26.4353 23.28C26.862 22.8267 27.4086 22.6 28.0753 22.6C28.742 22.6 29.2886 22.8267 29.7153 23.28C30.142 23.7067 30.3553 24.24 30.3553 24.88C30.3553 25.5467 30.142 26.1067 29.7153 26.56C29.2886 26.9867 28.742 27.2 28.0753 27.2ZM47.0206 50V38.92C47.0206 37.48 46.5673 36.2933 45.6606 35.36C44.754 34.4267 43.5806 33.96 42.1406 33.96C41.1806 33.96 40.3273 34.1733 39.5806 34.6C38.834 35.0267 38.2473 35.6133 37.8206 36.36C37.394 37.1067 37.1806 37.96 37.1806 38.92L35.7006 38.08C35.7006 36.64 36.0206 35.36 36.6606 34.24C37.3006 33.12 38.194 32.24 39.3406 31.6C40.4873 30.9333 41.7806 30.6 43.2206 30.6C44.6606 30.6 45.9273 30.96 47.0206 31.68C48.1406 32.4 49.0206 33.3467 49.6606 34.52C50.3006 35.6667 50.6206 36.8933 50.6206 38.2V50H47.0206ZM33.5806 50V31H37.1806V50H33.5806ZM61.9347 50.4C60.1747 50.4 58.6014 49.9733 57.2147 49.12C55.828 48.24 54.7214 47.0533 53.8947 45.56C53.0947 44.0667 52.6947 42.3867 52.6947 40.52C52.6947 38.6533 53.0947 36.9733 53.8947 35.48C54.7214 33.9867 55.828 32.8 57.2147 31.92C58.6014 31.04 60.1747 30.6 61.9347 30.6C63.348 30.6 64.628 30.9067 65.7747 31.52C66.9214 32.1067 67.8414 32.9333 68.5347 34C69.2547 35.04 69.6547 36.2533 69.7347 37.64V43.36C69.6547 44.72 69.268 45.9333 68.5747 47C67.8814 48.0667 66.9614 48.9067 65.8147 49.52C64.668 50.1067 63.3747 50.4 61.9347 50.4ZM62.5347 47C63.7347 47 64.7747 46.72 65.6547 46.16C66.5614 45.6 67.268 44.84 67.7747 43.88C68.2814 42.8933 68.5347 41.7733 68.5347 40.52C68.5347 39.2133 68.268 38.08 67.7347 37.12C67.228 36.16 66.5214 35.4 65.6147 34.84C64.7347 34.28 63.6947 34 62.4947 34C61.2947 34 60.2414 34.28 59.3347 34.84C58.428 35.4 57.708 36.1733 57.1747 37.16C56.668 38.12 56.4147 39.2267 56.4147 40.48C56.4147 41.76 56.668 42.8933 57.1747 43.88C57.708 44.84 58.428 45.6 59.3347 46.16C60.268 46.72 61.3347 47 62.5347 47ZM71.9347 50H68.2947V44.88L68.9747 40.24L68.2947 35.64V21.44H71.9347V50ZM83.6559 50.4C81.9226 50.4 80.3493 49.9733 78.9359 49.12C77.5226 48.24 76.4026 47.0533 75.5759 45.56C74.7759 44.0667 74.3759 42.3867 74.3759 40.52C74.3759 38.6533 74.7759 36.9733 75.5759 35.48C76.4026 33.9867 77.5093 32.8 78.8959 31.92C80.3093 31.04 81.8959 30.6 83.6559 30.6C85.0959 30.6 86.3759 30.9067 87.4959 31.52C88.6426 32.1067 89.5626 32.9333 90.2559 34C90.9493 35.04 91.3359 36.2533 91.4159 37.64V43.36C91.3359 44.72 90.9493 45.9333 90.2559 47C89.5893 48.0667 88.6826 48.9067 87.5359 49.52C86.4159 50.1067 85.1226 50.4 83.6559 50.4ZM84.2559 47C86.0426 47 87.4826 46.4 88.5759 45.2C89.6693 43.9733 90.2159 42.4133 90.2159 40.52C90.2159 39.2133 89.9626 38.08 89.4559 37.12C88.9759 36.1333 88.2826 35.3733 87.3759 34.84C86.4693 34.28 85.4159 34 84.2159 34C83.0159 34 81.9493 34.28 81.0159 34.84C80.1093 35.4 79.3893 36.1733 78.8559 37.16C78.3493 38.12 78.0959 39.2267 78.0959 40.48C78.0959 41.76 78.3493 42.8933 78.8559 43.88C79.3893 44.84 80.1226 45.6 81.0559 46.16C81.9893 46.72 83.0559 47 84.2559 47ZM89.9759 50V44.88L90.6559 40.24L89.9759 35.64V31H93.6159V50H89.9759ZM110.697 50V38.92C110.697 37.48 110.244 36.2933 109.337 35.36C108.431 34.4267 107.257 33.96 105.817 33.96C104.857 33.96 104.004 34.1733 103.257 34.6C102.511 35.0267 101.924 35.6133 101.497 36.36C101.071 37.1067 100.857 37.96 100.857 38.92L99.3772 38.08C99.3772 36.64 99.6972 35.36 100.337 34.24C100.977 33.12 101.871 32.24 103.017 31.6C104.164 30.9333 105.457 30.6 106.897 30.6C108.337 30.6 109.604 30.96 110.697 31.68C111.817 32.4 112.697 33.3467 113.337 34.52C113.977 35.6667 114.297 36.8933 114.297 38.2V50H110.697ZM97.2572 50V31H100.857V50H97.2572ZM125.451 58.36C123.505 58.36 121.771 58 120.251 57.28C118.758 56.56 117.558 55.5467 116.651 54.24L118.971 51.88C119.745 52.8667 120.665 53.6133 121.731 54.12C122.798 54.6533 124.065 54.92 125.531 54.92C127.478 54.92 129.011 54.4 130.131 53.36C131.278 52.3467 131.851 50.9733 131.851 49.24V44.52L132.491 40.24L131.851 36V31H135.451V49.24C135.451 51.0533 135.025 52.64 134.171 54C133.345 55.36 132.171 56.4267 130.651 57.2C129.158 57.9733 127.425 58.36 125.451 58.36ZM125.451 49.68C123.718 49.68 122.158 49.2667 120.771 48.44C119.411 47.6133 118.331 46.48 117.531 45.04C116.731 43.5733 116.331 41.9333 116.331 40.12C116.331 38.3067 116.731 36.6933 117.531 35.28C118.331 33.84 119.411 32.7067 120.771 31.88C122.158 31.0267 123.718 30.6 125.451 30.6C126.945 30.6 128.265 30.8933 129.411 31.48C130.558 32.0667 131.465 32.8933 132.131 33.96C132.825 35 133.198 36.2267 133.251 37.64V42.68C133.171 44.0667 132.785 45.2933 132.091 46.36C131.425 47.4 130.518 48.2133 129.371 48.8C128.225 49.3867 126.918 49.68 125.451 49.68ZM126.171 46.28C127.345 46.28 128.371 46.0267 129.251 45.52C130.158 45.0133 130.851 44.3067 131.331 43.4C131.811 42.4667 132.051 41.3867 132.051 40.16C132.051 38.9333 131.798 37.8667 131.291 36.96C130.811 36.0267 130.131 35.3067 129.251 34.8C128.371 34.2667 127.331 34 126.131 34C124.931 34 123.878 34.2667 122.971 34.8C122.065 35.3067 121.345 36.0267 120.811 36.96C120.305 37.8667 120.051 38.92 120.051 40.12C120.051 41.32 120.305 42.3867 120.811 43.32C121.345 44.2533 122.065 44.9867 122.971 45.52C123.905 46.0267 124.971 46.28 126.171 46.28Z" fill="#89C97B"/>
<path d="M234.28 50V22.24H236.92L248.68 41.56H246.88L258.64 22.24H261.28V50H257.52V28.84L258.4 29.08L249.12 44.32H246.48L237.2 29.08L238.04 28.84V50H234.28ZM273.675 50.4C271.941 50.4 270.368 49.9733 268.955 49.12C267.541 48.24 266.421 47.0533 265.595 45.56C264.795 44.0667 264.395 42.3867 264.395 40.52C264.395 38.6533 264.795 36.9733 265.595 35.48C266.421 33.9867 267.528 32.8 268.915 31.92C270.328 31.04 271.915 30.6 273.675 30.6C275.115 30.6 276.395 30.9067 277.515 31.52C278.661 32.1067 279.581 32.9333 280.275 34C280.968 35.04 281.355 36.2533 281.435 37.64V43.36C281.355 44.72 280.968 45.9333 280.275 47C279.608 48.0667 278.701 48.9067 277.555 49.52C276.435 50.1067 275.141 50.4 273.675 50.4ZM274.275 47C276.061 47 277.501 46.4 278.595 45.2C279.688 43.9733 280.235 42.4133 280.235 40.52C280.235 39.2133 279.981 38.08 279.475 37.12C278.995 36.1333 278.301 35.3733 277.395 34.84C276.488 34.28 275.435 34 274.235 34C273.035 34 271.968 34.28 271.035 34.84C270.128 35.4 269.408 36.1733 268.875 37.16C268.368 38.12 268.115 39.2267 268.115 40.48C268.115 41.76 268.368 42.8933 268.875 43.88C269.408 44.84 270.141 45.6 271.075 46.16C272.008 46.72 273.075 47 274.275 47ZM279.995 50V44.88L280.675 40.24L279.995 35.64V31H283.635V50H279.995ZM287.276 50V31H290.876V50H287.276ZM290.876 39.16L289.516 38.56C289.516 36.1333 290.076 34.2 291.196 32.76C292.316 31.32 293.929 30.6 296.036 30.6C296.996 30.6 297.863 30.7733 298.636 31.12C299.409 31.44 300.129 31.9867 300.796 32.76L298.436 35.2C298.036 34.7733 297.596 34.4667 297.116 34.28C296.636 34.0933 296.076 34 295.436 34C294.103 34 293.009 34.4267 292.156 35.28C291.303 36.1333 290.876 37.4267 290.876 39.16ZM313.891 50L305.011 40.28L313.811 31H318.171L308.371 41.24L308.531 39.16L318.531 50H313.891ZM301.731 50V21.44H305.331V50H301.731ZM327.759 50.4C325.865 50.4 324.159 49.9733 322.639 49.12C321.119 48.24 319.919 47.0533 319.039 45.56C318.159 44.0667 317.719 42.3733 317.719 40.48C317.719 38.6133 318.145 36.9333 318.999 35.44C319.879 33.9467 321.052 32.7733 322.519 31.92C324.012 31.04 325.679 30.6 327.519 30.6C329.279 30.6 330.825 31 332.159 31.8C333.519 32.6 334.572 33.7067 335.319 35.12C336.092 36.5333 336.479 38.1333 336.479 39.92C336.479 40.1867 336.465 40.48 336.439 40.8C336.412 41.0933 336.359 41.44 336.279 41.84H320.239V38.84H334.359L333.039 40C333.039 38.72 332.812 37.64 332.359 36.76C331.905 35.8533 331.265 35.16 330.439 34.68C329.612 34.1733 328.612 33.92 327.439 33.92C326.212 33.92 325.132 34.1867 324.199 34.72C323.265 35.2533 322.545 36 322.039 36.96C321.532 37.92 321.279 39.0533 321.279 40.36C321.279 41.6933 321.545 42.8667 322.079 43.88C322.612 44.8667 323.372 45.64 324.359 46.2C325.345 46.7333 326.479 47 327.759 47C328.825 47 329.799 46.8133 330.679 46.44C331.585 46.0667 332.359 45.5067 332.999 44.76L335.319 47.12C334.412 48.1867 333.292 49 331.959 49.56C330.652 50.12 329.252 50.4 327.759 50.4ZM341.138 50V23.04H344.738V50H341.138ZM336.458 34.28V31H349.418V34.28H336.458Z" fill="#89C97B"/>
</svg>
